<svg width="264" height="354" viewBox="0 0 264 354" fill="none" xmlns="http://www.w3.org/2000/svg">
<g clip-path="url(#clip0_61_6678)">
<mask id="mask0_61_6678" style="mask-type:luminance" maskUnits="userSpaceOnUse" x="8" y="0" width="249" height="353">
<path d="M256.694 0.26709H8.23145V352.953H256.694V0.26709Z" fill="white"/>
</mask>
<g mask="url(#mask0_61_6678)">
<mask id="mask1_61_6678" style="mask-type:luminance" maskUnits="userSpaceOnUse" x="8" y="0" width="249" height="144">
<path d="M256.844 0.26709H8.38135V143.496H256.844V0.26709Z" fill="white"/>
</mask>
<g mask="url(#mask1_61_6678)">
<path d="M8.38135 139.683L256.844 140.39V143.496H8.38135V139.683Z" fill="#D7EDE6"/>
<path d="M8.38135 138.677L256.844 139.383V140.389L8.38135 139.683V138.677Z" fill="#D7EDE6"/>
<path d="M8.38135 137.66L256.844 138.367V139.383L8.38135 138.676V137.66Z" fill="#D6EDE6"/>
<path d="M8.38135 136.654L256.844 137.36V138.367L8.38135 137.66V136.654Z" fill="#D5ECE6"/>
<path d="M8.38135 135.648L256.844 136.354V137.361L8.38135 136.654V135.648Z" fill="#D4EBE5"/>
<path d="M8.38135 134.641L256.844 135.348V136.354L8.38135 135.648V134.641Z" fill="#D3EBE5"/>
<path d="M8.38135 133.635L256.844 134.341V135.348L8.38135 134.641V133.635Z" fill="#D2EAE5"/>
<path d="M8.38135 132.628L256.844 133.335V134.341L8.38135 133.635V132.628Z" fill="#D1E9E5"/>
<path d="M8.38135 131.622L256.844 132.319V133.335L8.38135 132.628V131.622Z" fill="#D0E9E5"/>
<path d="M8.38135 130.606L256.844 131.312V132.319L8.38135 131.622V130.606Z" fill="#CFE8E4"/>
<path d="M8.38135 129.6L256.844 130.306V131.312L8.38135 130.606V129.6Z" fill="#CEE7E4"/>
<path d="M8.38135 128.593L256.844 129.299V130.306L8.38135 129.599V128.593Z" fill="#CDE7E4"/>
<path d="M8.38135 127.587L256.844 128.293V129.299L8.38135 128.593V127.587Z" fill="#CCE6E4"/>
<path d="M8.38135 126.58L256.844 127.287V128.293L8.38135 127.587V126.58Z" fill="#CBE6E4"/>
<path d="M8.38135 125.574L256.844 126.28V127.287L8.38135 126.58V125.574Z" fill="#C9E5E4"/>
<path d="M8.38135 124.567L256.844 125.264V126.28L8.38135 125.574V124.567Z" fill="#C8E4E3"/>
<path d="M8.38135 123.551L256.844 124.258V125.264L8.38135 124.567V123.551Z" fill="#C7E4E3"/>
<path d="M8.38135 122.545L256.844 123.252V124.258L8.38135 123.552V122.545Z" fill="#C6E3E3"/>
<path d="M8.38135 121.539L256.844 122.245V123.251L8.38135 122.545V121.539Z" fill="#C5E3E3"/>
<path d="M8.38135 120.532L256.844 121.238V122.245L8.38135 121.538V120.532Z" fill="#C4E2E3"/>
<path d="M8.38135 119.526L256.844 120.232V121.239L8.38135 120.532V119.526Z" fill="#C3E2E3"/>
<path d="M8.38135 118.519L256.844 119.226V120.232L8.38135 119.526V118.519Z" fill="#C2E1E2"/>
<path d="M8.38135 117.503L256.844 118.21V119.226L8.38135 118.519V117.503Z" fill="#C1E1E2"/>
<path d="M8.38135 116.497L256.844 117.203V118.21L8.38135 117.503V116.497Z" fill="#C0E0E2"/>
<path d="M8.38135 115.49L256.844 116.197V117.203L8.38135 116.497V115.49Z" fill="#BFE0E2"/>
<path d="M8.38135 114.484L256.844 115.19V116.197L8.38135 115.49V114.484Z" fill="#BEDFE2"/>
<path d="M8.38135 113.478L256.844 114.184V115.191L8.38135 114.484V113.478Z" fill="#BDDEE2"/>
<path d="M8.38135 112.471L256.844 113.178V114.184L8.38135 113.478V112.471Z" fill="#BCDEE1"/>
<path d="M8.38135 111.465L256.844 112.162V113.178L8.38135 112.471V111.465Z" fill="#BBDDE1"/>
<path d="M8.38135 110.449L256.844 111.155V112.162L8.38135 111.465V110.449Z" fill="#BADDE1"/>
<path d="M8.38135 109.442L256.844 110.149V111.155L8.38135 110.449V109.442Z" fill="#B9DCE1"/>
<path d="M8.38135 108.436L256.844 109.142V110.149L8.38135 109.442V108.436Z" fill="#B8DCE1"/>
<path d="M8.38135 107.429L256.844 108.136V109.142L8.38135 108.436V107.429Z" fill="#B7DBE1"/>
<path d="M8.38135 106.423L256.844 107.13V108.136L8.38135 107.43V106.423Z" fill="#B6DBE1"/>
<path d="M8.38135 105.417L256.844 106.123V107.13L8.38135 106.423V105.417Z" fill="#B5DAE0"/>
<path d="M8.38135 104.41L256.844 105.107V106.123L8.38135 105.417V104.41Z" fill="#B4DAE0"/>
<path d="M8.38135 103.394L256.844 104.1V105.107L8.38135 104.41V103.394Z" fill="#B3D9E0"/>
<path d="M8.38135 102.388L256.844 103.094V104.101L8.38135 103.394V102.388Z" fill="#B2D9E0"/>
<path d="M8.38135 101.381L256.844 102.088V103.094L8.38135 102.388V101.381Z" fill="#B1D8E0"/>
<path d="M8.38135 100.375L256.844 101.081V102.088L8.38135 101.381V100.375Z" fill="#B0D8E0"/>
<path d="M8.38135 99.3689L256.844 100.075V101.082L8.38135 100.375V99.3689Z" fill="#AFD7E0"/>
<path d="M8.38135 98.3623L256.844 99.0687V100.075L8.38135 99.3687V98.3623Z" fill="#AED7E0"/>
<path d="M8.38135 97.3459L256.844 98.0524V99.0684L8.38135 98.362V97.3459Z" fill="#ADD6DF"/>
<path d="M8.38135 96.3401L256.844 97.0465V98.0529L8.38135 97.3465V96.3401Z" fill="#ACD6DF"/>
<path d="M8.38135 95.3335L256.844 96.0399V97.0463L8.38135 96.3399V95.3335Z" fill="#AAD5DF"/>
<path d="M8.38135 94.3269L256.844 95.0333V96.0397L8.38135 95.3333V94.3269Z" fill="#A9D5DF"/>
<path d="M8.38135 93.3208L256.844 94.0272V95.0336L8.38135 94.3272V93.3208Z" fill="#A8D4DF"/>
<path d="M8.38135 92.3142L256.844 93.0206V94.027L8.38135 93.3206V92.3142Z" fill="#A7D4DF"/>
<path d="M8.38135 91.3076L256.844 92.0044V93.0204L8.38135 92.314V91.3076Z" fill="#A6D3DF"/>
<path d="M8.38135 90.2917L256.844 90.9982V92.0046L8.38135 91.3078V90.2917Z" fill="#A5D3DE"/>
<path d="M8.38135 89.2854L256.844 89.9918V90.9982L8.38135 90.2918V89.2854Z" fill="#A4D3DE"/>
<path d="M8.38135 88.2788L256.844 88.9852V89.9916L8.38135 89.2852V88.2788Z" fill="#A3D2DE"/>
<path d="M8.38135 87.2725L256.844 87.9789V88.9853L8.38135 88.2789V87.2725Z" fill="#A2D2DE"/>
<path d="M8.38135 86.2661L256.844 86.9725V87.9789L8.38135 87.2725V86.2661Z" fill="#A1D1DE"/>
<path d="M8.38135 85.2595L256.844 85.9659V86.9723L8.38135 86.2659V85.2595Z" fill="#A0D1DE"/>
<path d="M8.38135 84.2534L256.844 84.9502V85.9662L8.38135 85.2598V84.2534Z" fill="#9FD0DE"/>
<path d="M8.38135 83.2371L256.844 83.9435V84.9499L8.38135 84.2531V83.2371Z" fill="#9ED0DE"/>
<path d="M8.38135 82.231L256.844 82.9374V83.9438L8.38135 83.2374V82.231Z" fill="#9DCFDD"/>
<path d="M8.38135 81.2244L256.844 81.9308V82.9372L8.38135 82.2308V81.2244Z" fill="#9CCFDD"/>
<path d="M8.38135 80.2178L256.844 80.9242V81.9306L8.38135 81.2242V80.2178Z" fill="#9BCEDD"/>
<path d="M8.38135 79.2117L256.844 79.9181V80.9245L8.38135 80.2181V79.2117Z" fill="#9ACEDD"/>
<path d="M8.38135 78.2051L256.844 78.9115V79.9179L8.38135 79.2115V78.2051Z" fill="#99CDDD"/>
<path d="M8.38135 77.189L256.844 77.8954V78.9115L8.38135 78.205V77.189Z" fill="#97CDDD"/>
<path d="M8.38135 76.1829L256.844 76.8893V77.8957L8.38135 77.1893V76.1829Z" fill="#96CCDD"/>
<path d="M8.38135 75.1763L256.844 75.8827V76.8891L8.38135 76.1827V75.1763Z" fill="#95CCDD"/>
<path d="M8.38135 74.1697L256.844 74.8761V75.8825L8.38135 75.1761V74.1697Z" fill="#94CCDC"/>
<path d="M8.38135 73.1636L256.844 73.87V74.8764L8.38135 74.17V73.1636Z" fill="#93CBDC"/>
<path d="M8.38135 72.1572L256.844 72.8636V73.87L8.38135 73.1636V72.1572Z" fill="#92CBDC"/>
<path d="M8.38135 71.1509L256.844 71.8476V72.8637L8.38135 72.1573V71.1509Z" fill="#91CADC"/>
<path d="M8.38135 70.1345L256.844 70.8409V71.8473L8.38135 71.1506V70.1345Z" fill="#90CADC"/>
<path d="M8.38135 69.1284L256.844 69.8348V70.8412L8.38135 70.1348V69.1284Z" fill="#8FC9DC"/>
<path d="M8.38135 68.1218L256.844 68.8282V69.8346L8.38135 69.1282V68.1218Z" fill="#8EC9DC"/>
<path d="M8.38135 67.1152L256.844 67.8216V68.8281L8.38135 68.1216V67.1152Z" fill="#8DC8DC"/>
<path d="M8.38135 66.1091L256.844 66.8155V67.8219L8.38135 67.1155V66.1091Z" fill="#8CC8DB"/>
<path d="M8.38135 65.1025L256.844 65.809V66.8154L8.38135 66.1089V65.1025Z" fill="#8BC8DB"/>
<path d="M8.38135 64.0962L256.844 64.7929V65.809L8.38135 65.1026V64.0962Z" fill="#8AC7DB"/>
<path d="M8.38135 63.0803L256.844 63.7867V64.7931L8.38135 64.0964V63.0803Z" fill="#89C7DB"/>
<path d="M8.38135 62.0737L256.844 62.7801V63.7866L8.38135 63.0801V62.0737Z" fill="#87C6DB"/>
<path d="M8.38135 61.0671L256.844 61.7736V62.78L8.38135 62.0735V61.0671Z" fill="#86C6DB"/>
<path d="M8.38135 60.061L256.844 60.7675V61.7739L8.38135 61.0674V60.061Z" fill="#85C5DB"/>
<path d="M8.38135 59.0544L256.844 59.7609V60.7673L8.38135 60.0608V59.0544Z" fill="#84C5DB"/>
<path d="M8.38135 58.0481L256.844 58.7448V59.7609L8.38135 59.0545V58.0481Z" fill="#83C5DA"/>
<path d="M8.38135 57.032L256.844 57.7384V58.7448L8.38135 58.0481V57.032Z" fill="#82C4DA"/>
<path d="M8.38135 56.0256L256.844 56.7321V57.7385L8.38135 57.032V56.0256Z" fill="#81C4DA"/>
<path d="M8.38135 55.0193L256.844 55.7257V56.7321L8.38135 56.0257V55.0193Z" fill="#80C3DA"/>
<path d="M8.38135 54.0127L256.844 54.7191V55.7255L8.38135 55.0191V54.0127Z" fill="#7FC3DA"/>
<path d="M8.38135 53.0063L256.844 53.7128V54.7192L8.38135 54.0128V53.0063Z" fill="#7DC2DA"/>
<path d="M8.38135 52L256.844 52.7064V53.7128L8.38135 53.0064V52Z" fill="#7CC2DA"/>
<path d="M8.38135 50.9937L256.844 51.6904V52.7065L8.38135 52.0001V50.9937Z" fill="#7BC2DA"/>
<path d="M8.38135 49.9773L256.844 50.6837V51.6901L8.38135 50.9934V49.9773Z" fill="#7AC1D9"/>
<path d="M8.38135 48.9712L256.844 49.6776V50.684L8.38135 49.9776V48.9712Z" fill="#79C1D9"/>
<path d="M8.38135 47.9646L256.844 48.671V49.6774L8.38135 48.971V47.9646Z" fill="#78C0D9"/>
<path d="M8.38135 46.958L256.844 47.6644V48.6708L8.38135 47.9644V46.958Z" fill="#77C0D9"/>
<path d="M8.38135 45.9519L256.844 46.6583V47.6647L8.38135 46.9583V45.9519Z" fill="#76C0D9"/>
<path d="M8.38135 44.9456L256.844 45.652V46.6584L8.38135 45.952V44.9456Z" fill="#74BFD9"/>
<path d="M8.38135 43.9292L256.844 44.6356V45.6517L8.38135 44.9453V43.9292Z" fill="#73BFD9"/>
<path d="M8.38135 42.9231L256.844 43.6295V44.6359L8.38135 43.9295V42.9231Z" fill="#72BED9"/>
<path d="M8.38135 41.9167L256.844 42.6232V43.6296L8.38135 42.9232V41.9167Z" fill="#71BED9"/>
<path d="M8.38135 40.9102L256.844 41.6166V42.623L8.38135 41.9166V40.9102Z" fill="#70BED8"/>
<path d="M8.38135 39.9038L256.844 40.6102V41.6166L8.38135 40.9102V39.9038Z" fill="#6FBDD8"/>
<path d="M8.38135 38.8975L256.844 39.6039V40.6103L8.38135 39.9039V38.8975Z" fill="#6DBDD8"/>
<path d="M8.38135 37.8909L256.844 38.5876V39.6037L8.38135 38.8973V37.8909Z" fill="#6CBCD8"/>
<path d="M8.38135 36.8748L256.844 37.5812V38.5876L8.38135 37.8908V36.8748Z" fill="#6BBCD8"/>
<path d="M8.38135 35.8687L256.844 36.5751V37.5815L8.38135 36.8751V35.8687Z" fill="#6ABCD8"/>
<path d="M8.38135 34.8621L256.844 35.5685V36.5749L8.38135 35.8685V34.8621Z" fill="#69BBD8"/>
<path d="M8.38135 33.8555L256.844 34.5619V35.5683L8.38135 34.8619V33.8555Z" fill="#67BBD8"/>
<path d="M8.38135 32.8494L256.844 33.5558V34.5622L8.38135 33.8558V32.8494Z" fill="#66BAD7"/>
<path d="M8.38135 31.8428L256.844 32.5492V33.5556L8.38135 32.8492V31.8428Z" fill="#65BAD7"/>
<path d="M8.38135 30.8367L256.844 31.5334V32.5495L8.38135 31.8431V30.8367Z" fill="#64BAD7"/>
<path d="M8.38135 29.8206L256.844 30.527V31.5334L8.38135 30.8366V29.8206Z" fill="#63B9D7"/>
<path d="M8.38135 28.814L256.844 29.5204V30.5268L8.38135 29.8204V28.814Z" fill="#61B9D7"/>
<path d="M8.38135 27.8076L256.844 28.514V29.5204L8.38135 28.814V27.8076Z" fill="#60B8D7"/>
<path d="M8.38135 26.8013L256.844 27.5077V28.5141L8.38135 27.8077V26.8013Z" fill="#5FB8D7"/>
<path d="M8.38135 25.7949L256.844 26.5013V27.5077L8.38135 26.8013V25.7949Z" fill="#5DB8D7"/>
<path d="M8.38135 24.7883L256.844 25.4947V26.5012L8.38135 25.7947V24.7883Z" fill="#5CB7D6"/>
<path d="M8.38135 23.7722L256.844 24.4786V25.4947L8.38135 24.7883V23.7722Z" fill="#5BB7D6"/>
<path d="M8.38135 22.7661L256.844 23.4725V24.4789L8.38135 23.7725V22.7661Z" fill="#59B6D6"/>
<path d="M8.38135 21.7595L256.844 22.4659V23.4723L8.38135 22.7659V21.7595Z" fill="#58B6D6"/>
<path d="M8.38135 20.7529L256.844 21.4593V22.4658L8.38135 21.7593V20.7529Z" fill="#57B6D6"/>
<path d="M8.38135 19.7468L256.844 20.4532V21.4596L8.38135 20.7532V19.7468Z" fill="#55B5D6"/>
<path d="M8.38135 18.7402L256.844 19.4467V20.4531L8.38135 19.7466V18.7402Z" fill="#54B5D6"/>
<path d="M8.38135 17.7336L256.844 18.4304V19.4465L8.38135 18.74V17.7336Z" fill="#52B5D6"/>
<path d="M8.38135 16.718L256.844 17.4244V18.4308L8.38135 17.7341V16.718Z" fill="#51B4D6"/>
<path d="M8.38135 15.7114L256.844 16.4178V17.4242L8.38135 16.7178V15.7114Z" fill="#4FB4D5"/>
<path d="M8.38135 14.7051L256.844 15.4115V16.4179L8.38135 15.7115V14.7051Z" fill="#4EB3D5"/>
<path d="M8.38135 13.6987L256.844 14.4051V15.4116L8.38135 14.7051V13.6987Z" fill="#4CB3D5"/>
<path d="M8.38135 12.6921L256.844 13.3986V14.405L8.38135 13.6985V12.6921Z" fill="#4BB3D5"/>
<path d="M8.38135 11.6858L256.844 12.3922V13.3986L8.38135 12.6922V11.6858Z" fill="#49B2D5"/>
<path d="M8.38135 10.6794L256.844 11.3762V12.3923L8.38135 11.6858V10.6794Z" fill="#47B2D5"/>
<path d="M8.38135 9.66333L256.844 10.3697V11.3762L8.38135 10.6794V9.66333Z" fill="#46B2D5"/>
<path d="M8.38135 8.65698L256.844 9.3634V10.3698L8.38135 9.66339V8.65698Z" fill="#44B1D5"/>
<path d="M8.38135 7.65039L256.844 8.35681V9.36321L8.38135 8.65679V7.65039Z" fill="#42B1D5"/>
<path d="M8.38135 6.64404L256.844 7.35046V8.35686L8.38135 7.65045V6.64404Z" fill="#40B1D4"/>
<path d="M8.38135 5.6377L256.844 6.34411V7.35052L8.38135 6.6441V5.6377Z" fill="#3EB0D4"/>
<path d="M8.38135 4.6311L256.844 5.33752V6.34392L8.38135 5.63751V4.6311Z" fill="#3DB0D4"/>
<path d="M8.38135 3.61499L256.844 4.32141V5.33749L8.38135 4.63107V3.61499Z" fill="#3BAFD4"/>
<path d="M8.38135 2.60889L256.844 3.3153V4.32171L8.38135 3.61529V2.60889Z" fill="#39AFD4"/>
<path d="M8.38135 1.60254L256.844 2.30896V3.31536L8.38135 2.60894V1.60254Z" fill="#37AFD4"/>
<path d="M8.38135 0.596191L256.844 1.30261V2.30901L8.38135 1.60259V0.596191Z" fill="#34AED4"/>
<path d="M247.415 0.26709L256.844 0.296121V1.30252L8.38135 0.596106V0.26709H247.415Z" fill="#32AED4"/>
<path d="M253.522 0.26709H256.844V0.296798L247.415 0.26709H253.522Z" fill="#32AED4"/>
</g>
<path d="M263.824 97.0171H245.238V127.925H263.824V97.0171Z" fill="#A1D9D7"/>
<path d="M132.631 132.251H136.3H139.968H143.637H146.761H149.951H153.62H157.288H160.957H164.616H168.284H171.953H175.612H179.168V132.26V197.831H82.3984V132.251H82.7925H85.9919H89.6604H93.3195H96.9879H100.656H104.316H107.984H111.653H114.777H117.976H121.635H125.304H128.972H132.631Z" fill="#A1D9D7"/>
<path d="M82.7918 132.589C82.6135 132.589 82.4634 132.435 82.4634 132.251V125.477C82.4634 125.293 82.6135 125.138 82.7918 125.138H114.776C114.954 125.138 115.104 125.293 115.104 125.477C115.104 125.661 114.954 125.816 114.776 125.816H83.1201V132.251C83.1201 132.435 82.97 132.589 82.7918 132.589Z" fill="#A1D9D7"/>
<path d="M85.9915 132.589C85.8132 132.589 85.6631 132.435 85.6631 132.251V125.477C85.6631 125.293 85.8132 125.138 85.9915 125.138C86.1697 125.138 86.3199 125.293 86.3199 125.477V132.251C86.3199 132.435 86.1697 132.589 85.9915 132.589Z" fill="#A1D9D7"/>
<path d="M89.6599 132.589C89.4817 132.589 89.3315 132.435 89.3315 132.251V125.477C89.3315 125.293 89.4817 125.138 89.6599 125.138C89.8382 125.138 89.9883 125.293 89.9883 125.477V132.251C89.9883 132.435 89.8382 132.589 89.6599 132.589Z" fill="#A1D9D7"/>
<path d="M93.3191 132.589C93.1408 132.589 92.9907 132.435 92.9907 132.251V125.477C92.9907 125.293 93.1408 125.138 93.3191 125.138C93.4974 125.138 93.6475 125.293 93.6475 125.477V132.251C93.6475 132.435 93.4974 132.589 93.3191 132.589Z" fill="#A1D9D7"/>
<path d="M96.9876 132.589C96.8093 132.589 96.6592 132.435 96.6592 132.251V125.477C96.6592 125.293 96.8093 125.138 96.9876 125.138C97.1658 125.138 97.3159 125.293 97.3159 125.477V132.251C97.3159 132.435 97.1658 132.589 96.9876 132.589Z" fill="#A1D9D7"/>
<path d="M100.656 132.589C100.478 132.589 100.328 132.435 100.328 132.251V125.477C100.328 125.293 100.478 125.138 100.656 125.138C100.834 125.138 100.984 125.293 100.984 125.477V132.251C100.984 132.435 100.834 132.589 100.656 132.589Z" fill="#A1D9D7"/>
<path d="M104.315 132.589C104.137 132.589 103.987 132.435 103.987 132.251V125.477C103.987 125.293 104.137 125.138 104.315 125.138C104.493 125.138 104.644 125.293 104.644 125.477V132.251C104.644 132.435 104.493 132.589 104.315 132.589Z" fill="#A1D9D7"/>
<path d="M111.652 132.589C111.474 132.589 111.324 132.435 111.324 132.251V125.477C111.324 125.293 111.474 125.138 111.652 125.138C111.83 125.138 111.98 125.293 111.98 125.477V132.251C111.98 132.435 111.83 132.589 111.652 132.589Z" fill="#A1D9D7"/>
<path d="M107.984 132.589C107.805 132.589 107.655 132.435 107.655 132.251V125.477C107.655 125.293 107.805 125.138 107.984 125.138C108.162 125.138 108.312 125.293 108.312 125.477V132.251C108.312 132.435 108.162 132.589 107.984 132.589Z" fill="#A1D9D7"/>
<path d="M114.777 132.589C114.598 132.589 114.448 132.435 114.448 132.251V125.477C114.448 125.293 114.598 125.138 114.777 125.138H146.761C146.939 125.138 147.089 125.293 147.089 125.477C147.089 125.661 146.939 125.816 146.761 125.816H115.105V132.251C115.105 132.435 114.955 132.589 114.777 132.589Z" fill="#A1D9D7"/>
<path d="M117.976 132.589C117.798 132.589 117.647 132.435 117.647 132.251V125.477C117.647 125.293 117.798 125.138 117.976 125.138C118.154 125.138 118.304 125.293 118.304 125.477V132.251C118.304 132.435 118.154 132.589 117.976 132.589Z" fill="#A1D9D7"/>
<path d="M121.635 132.589C121.457 132.589 121.307 132.435 121.307 132.251V125.477C121.307 125.293 121.457 125.138 121.635 125.138C121.813 125.138 121.963 125.293 121.963 125.477V132.251C121.963 132.435 121.813 132.589 121.635 132.589Z" fill="#A1D9D7"/>
<path d="M125.303 132.589C125.125 132.589 124.975 132.435 124.975 132.251V125.477C124.975 125.293 125.125 125.138 125.303 125.138C125.482 125.138 125.632 125.293 125.632 125.477V132.251C125.632 132.435 125.482 132.589 125.303 132.589Z" fill="#A1D9D7"/>
<path d="M128.972 132.589C128.794 132.589 128.644 132.435 128.644 132.251V125.477C128.644 125.293 128.794 125.138 128.972 125.138C129.15 125.138 129.3 125.293 129.3 125.477V132.251C129.3 132.435 129.15 132.589 128.972 132.589Z" fill="#A1D9D7"/>
<path d="M132.631 132.589C132.453 132.589 132.303 132.435 132.303 132.251V125.477C132.303 125.293 132.453 125.138 132.631 125.138C132.809 125.138 132.959 125.293 132.959 125.477V132.251C132.959 132.435 132.809 132.589 132.631 132.589Z" fill="#A1D9D7"/>
<path d="M136.3 132.589C136.121 132.589 135.971 132.435 135.971 132.251V125.477C135.971 125.293 136.121 125.138 136.3 125.138C136.478 125.138 136.628 125.293 136.628 125.477V132.251C136.628 132.435 136.478 132.589 136.3 132.589Z" fill="#A1D9D7"/>
<path d="M143.636 132.589C143.458 132.589 143.308 132.435 143.308 132.251V125.477C143.308 125.293 143.458 125.138 143.636 125.138C143.815 125.138 143.965 125.293 143.965 125.477V132.251C143.965 132.435 143.815 132.589 143.636 132.589Z" fill="#A1D9D7"/>
<path d="M139.968 132.589C139.79 132.589 139.64 132.435 139.64 132.251V125.477C139.64 125.293 139.79 125.138 139.968 125.138C140.146 125.138 140.296 125.293 140.296 125.477V132.251C140.296 132.435 140.146 132.589 139.968 132.589Z" fill="#A1D9D7"/>
<path d="M179.168 132.589C178.989 132.589 178.839 132.435 178.839 132.251V125.816H147.089V132.251C147.089 132.435 146.939 132.589 146.761 132.589C146.583 132.589 146.433 132.435 146.433 132.251V125.477C146.433 125.293 146.583 125.138 146.761 125.138H179.158C179.336 125.138 179.487 125.293 179.487 125.477V132.251C179.487 132.435 179.346 132.589 179.168 132.589Z" fill="#A1D9D7"/>
<path d="M149.951 132.589C149.773 132.589 149.623 132.435 149.623 132.251V125.477C149.623 125.293 149.773 125.138 149.951 125.138C150.129 125.138 150.279 125.293 150.279 125.477V132.251C150.279 132.435 150.129 132.589 149.951 132.589Z" fill="#A1D9D7"/>
<path d="M153.619 132.589C153.441 132.589 153.291 132.435 153.291 132.251V125.477C153.291 125.293 153.441 125.138 153.619 125.138C153.798 125.138 153.948 125.293 153.948 125.477V132.251C153.948 132.435 153.798 132.589 153.619 132.589Z" fill="#A1D9D7"/>
<path d="M157.288 132.589C157.11 132.589 156.959 132.435 156.959 132.251V125.477C156.959 125.293 157.11 125.138 157.288 125.138C157.466 125.138 157.616 125.293 157.616 125.477V132.251C157.616 132.435 157.466 132.589 157.288 132.589Z" fill="#A1D9D7"/>
<path d="M160.956 132.589C160.778 132.589 160.628 132.435 160.628 132.251V125.477C160.628 125.293 160.778 125.138 160.956 125.138C161.135 125.138 161.285 125.293 161.285 125.477V132.251C161.285 132.435 161.135 132.589 160.956 132.589Z" fill="#A1D9D7"/>
<path d="M164.615 132.589C164.437 132.589 164.287 132.435 164.287 132.251V125.477C164.287 125.293 164.437 125.138 164.615 125.138C164.794 125.138 164.944 125.293 164.944 125.477V132.251C164.944 132.435 164.794 132.589 164.615 132.589Z" fill="#A1D9D7"/>
<path d="M168.284 132.589C168.106 132.589 167.956 132.435 167.956 132.251V125.477C167.956 125.293 168.106 125.138 168.284 125.138C168.462 125.138 168.612 125.293 168.612 125.477V132.251C168.612 132.435 168.462 132.589 168.284 132.589Z" fill="#A1D9D7"/>
<path d="M175.612 132.589C175.433 132.589 175.283 132.435 175.283 132.251V125.477C175.283 125.293 175.433 125.138 175.612 125.138C175.79 125.138 175.94 125.293 175.94 125.477V132.251C175.94 132.435 175.79 132.589 175.612 132.589Z" fill="#A1D9D7"/>
<path d="M171.952 132.589C171.774 132.589 171.624 132.435 171.624 132.251V125.477C171.624 125.293 171.774 125.138 171.952 125.138C172.131 125.138 172.281 125.293 172.281 125.477V132.251C172.281 132.435 172.131 132.589 171.952 132.589Z" fill="#A1D9D7"/>
<path d="M86.1419 104.788V187.913H57.4414V104.788H86.1419ZM82.5954 121.48V116.148H80.353V121.48H82.5954ZM82.5954 114.532V109.2H80.353V114.532H82.5954ZM78.9175 121.48V116.148H76.6752V121.48H78.9175ZM78.9175 114.532V109.2H76.6752V114.532H78.9175ZM74.0012 128.419V123.096H71.7588V128.419H74.0012ZM74.0012 121.471V116.139H71.7588V121.471H74.0012ZM74.0012 114.523V109.191H71.7588V114.523H74.0012ZM70.3233 128.409V123.087H68.081V128.409H70.3233ZM70.3233 121.461V116.129H68.081V121.461H70.3233ZM70.3233 114.513V109.181H68.081V114.513H70.3233ZM65.4164 135.347V130.025H63.1646V135.347H65.4164ZM65.4164 128.399V123.077H63.1646V128.399H65.4164ZM65.4164 121.451V116.119H63.1646V121.451H65.4164ZM65.4164 114.503V109.171H63.1646V114.503H65.4164ZM61.7385 135.338V130.015H59.4868V135.338H61.7385ZM61.7385 128.39V123.067H59.4868V128.39H61.7385ZM61.7385 121.442V116.11H59.4868V121.442H61.7385ZM61.7385 114.494V109.162H59.4868V114.494H61.7385Z" fill="#A1D9D7"/>
<path d="M82.5954 116.139H80.353V121.471H82.5954V116.139Z" fill="#D7EDE6"/>
<path d="M82.5954 109.2H80.353V114.532H82.5954V109.2Z" fill="#D7EDE6"/>
<path d="M78.9084 116.139H76.666V121.471H78.9084V116.139Z" fill="#D7EDE6"/>
<path d="M78.9084 109.2H76.666V114.532H78.9084V109.2Z" fill="#D7EDE6"/>
<path d="M74.0012 123.096H71.7588V128.419H74.0012V123.096Z" fill="#D7EDE6"/>
<path d="M74.0012 116.139H71.7588V121.471H74.0012V116.139Z" fill="#D7EDE6"/>
<path d="M74.0012 109.2H71.7588V114.532H74.0012V109.2Z" fill="#D7EDE6"/>
<path d="M70.3142 123.096H68.0718V128.419H70.3142V123.096Z" fill="#D7EDE6"/>
<path d="M70.3142 116.139H68.0718V121.471H70.3142V116.139Z" fill="#D7EDE6"/>
<path d="M70.3142 109.2H68.0718V114.532H70.3142V109.2Z" fill="#D7EDE6"/>
<path d="M65.4163 130.035H63.1646V135.357H65.4163V130.035Z" fill="#D7EDE6"/>
<path d="M65.4163 123.096H63.1646V128.419H65.4163V123.096Z" fill="#D7EDE6"/>
<path d="M65.4163 116.139H63.1646V121.471H65.4163V116.139Z" fill="#D7EDE6"/>
<path d="M65.4163 109.2H63.1646V114.532H65.4163V109.2Z" fill="#D7EDE6"/>
<path d="M61.7293 130.035H59.4775V135.357H61.7293V130.035Z" fill="#D7EDE6"/>
<path d="M61.7293 123.096H59.4775V128.419H61.7293V123.096Z" fill="#D7EDE6"/>
<path d="M61.7293 116.139H59.4775V121.471H61.7293V116.139Z" fill="#D7EDE6"/>
<path d="M61.7293 109.2H59.4775V114.532H61.7293V109.2Z" fill="#D7EDE6"/>
<path d="M27.9811 89.8274H6.32666V137.312H27.9811V89.8274Z" fill="#A1D9D7"/>
<path d="M256.9 119.506V197.425H218.085V119.506H256.9ZM249.516 175.226V165.84H246.045V175.226H249.516ZM249.516 155.727V146.341H246.045V155.727H249.516ZM249.516 137.302V127.916H246.045V137.302H249.516ZM244.318 175.217V165.83H240.847V175.217H244.318ZM244.318 155.718V146.331H240.847V155.718H244.318ZM244.318 137.293V127.906H240.847V137.293H244.318ZM233.041 175.207V165.82H229.569V175.207H233.041ZM233.041 155.708V146.321H229.569V155.708H233.041ZM233.041 137.283V127.896H229.569V137.283H233.041ZM227.843 175.197V165.811H224.372V175.197H227.843ZM227.843 155.698V146.312H224.372V155.698H227.843ZM227.843 137.273V127.887H224.372V137.273H227.843Z" fill="#32AED4"/>
<path d="M249.526 165.839H246.054V175.226H249.526V165.839Z" fill="#94D5D6"/>
<path d="M249.526 146.35H246.054V155.737H249.526V146.35Z" fill="#94D5D6"/>
<path d="M249.526 127.925H246.054V137.312H249.526V127.925Z" fill="#94D5D6"/>
<path d="M244.328 165.839H240.856V175.226H244.328V165.839Z" fill="#94D5D6"/>
<path d="M244.328 146.35H240.856V155.737H244.328V146.35Z" fill="#94D5D6"/>
<path d="M244.328 127.925H240.856V137.312H244.328V127.925Z" fill="#94D5D6"/>
<path d="M233.051 165.839H229.579V175.226H233.051V165.839Z" fill="#94D5D6"/>
<path d="M233.051 146.35H229.579V155.737H233.051V146.35Z" fill="#94D5D6"/>
<path d="M233.051 127.925H229.579V137.312H233.051V127.925Z" fill="#94D5D6"/>
<path d="M227.852 165.839H224.381V175.226H227.852V165.839Z" fill="#94D5D6"/>
<path d="M227.852 146.35H224.381V155.737H227.852V146.35Z" fill="#94D5D6"/>
<path d="M227.852 127.925H224.381V137.312H227.852V127.925Z" fill="#94D5D6"/>
<path d="M184.853 201.199V242.529H123.287V235.136H125.116H183.024V207.073V201.199H184.853Z" fill="#32AED4"/>
<path d="M184.853 159.433V201.199H183.024H125.116V229.262V235.136H123.287V193.37H125.116H183.024V165.307V159.433H184.853Z" fill="#32AED4"/>
<path d="M155.703 152.05H184.853V159.433H183.024H125.116V187.496V193.37H123.287V152.05H155.703Z" fill="#32AED4"/>
<path d="M184.854 132.096H155.703V152.05H184.854V132.096Z" fill="#32AED4"/>
<path d="M183.024 207.073V235.136H125.116V229.262H126.655H129.92H131.815H135.071H136.957H140.231H142.117H145.382H147.277H150.542H152.428H155.703H157.588H160.853H162.739H166.004H167.89H171.165H173.05H176.316H178.201H181.476V207.073H183.024Z" fill="#57C6D4"/>
<path d="M183.024 201.199V207.073H181.476H178.201V229.262H176.316V207.073H173.05V229.262H171.165V207.073H167.89V229.262H166.004V207.073H162.739V229.262H160.853V207.073H157.588V229.262H155.703V207.073H152.428V229.262H150.542V207.073H147.277V229.262H145.382V207.073H142.117V229.262H140.231V207.073H136.957V229.262H135.071V207.073H131.815V229.262H129.92V207.073H126.655V229.262H125.116V201.199H183.024Z" fill="#57C6D4"/>
<path d="M183.024 165.307V193.371H125.116V187.497H126.655H129.92H131.815H135.071H136.957H140.231H142.117H145.382H147.277H150.542H152.428H155.703H157.588H160.853H162.739H166.004H167.89H171.165H173.05H176.316H178.201H181.476V165.307H183.024Z" fill="#57C6D4"/>
<path d="M183.024 159.433V165.307H181.476H178.201V187.497H176.316V165.307H173.05V187.497H171.165V165.307H167.89V187.497H166.004V165.307H162.739V187.497H160.853V165.307H157.588V187.497H155.703V165.307H152.428V187.497H150.542V165.307H147.277V187.497H145.382V165.307H142.117V187.497H140.231V165.307H136.957V187.497H135.071V165.307H131.815V187.497H129.92V165.307H126.655V187.497H125.116V159.433H183.024Z" fill="#57C6D4"/>
<path d="M181.476 207.073H178.202V229.262H181.476V207.073Z" fill="#94D5D6"/>
<path d="M181.476 165.307H178.202V187.497H181.476V165.307Z" fill="#94D5D6"/>
<path d="M176.316 207.073H173.051V229.262H176.316V207.073Z" fill="#94D5D6"/>
<path d="M176.316 165.307H173.051V187.497H176.316V165.307Z" fill="#94D5D6"/>
<path d="M171.165 207.073H167.89V229.262H171.165V207.073Z" fill="#94D5D6"/>
<path d="M171.165 165.307H167.89V187.497H171.165V165.307Z" fill="#94D5D6"/>
<path d="M166.004 207.073H162.739V229.262H166.004V207.073Z" fill="#94D5D6"/>
<path d="M166.004 165.307H162.739V187.497H166.004V165.307Z" fill="#94D5D6"/>
<path d="M160.853 207.073H157.588V229.262H160.853V207.073Z" fill="#94D5D6"/>
<path d="M160.853 165.307H157.588V187.497H160.853V165.307Z" fill="#94D5D6"/>
<path d="M155.703 207.073H152.428V229.262H155.703V207.073Z" fill="#94D5D6"/>
<path d="M155.703 165.307H152.428V187.497H155.703V165.307Z" fill="#94D5D6"/>
<path d="M150.542 207.073H147.277V229.262H150.542V207.073Z" fill="#94D5D6"/>
<path d="M150.542 165.307H147.277V187.497H150.542V165.307Z" fill="#94D5D6"/>
<path d="M145.382 207.073H142.117V229.262H145.382V207.073Z" fill="#94D5D6"/>
<path d="M145.382 165.307H142.117V187.497H145.382V165.307Z" fill="#94D5D6"/>
<path d="M140.231 207.073H136.957V229.262H140.231V207.073Z" fill="#94D5D6"/>
<path d="M140.231 165.307H136.957V187.497H140.231V165.307Z" fill="#94D5D6"/>
<path d="M135.08 207.073H131.815V229.262H135.08V207.073Z" fill="#94D5D6"/>
<path d="M135.08 165.307H131.815V187.497H135.08V165.307Z" fill="#94D5D6"/>
<path d="M129.929 207.073H126.655V229.262H129.929V207.073Z" fill="#94D5D6"/>
<path d="M129.929 165.307H126.655V187.497H129.929V165.307Z" fill="#94D5D6"/>
<path d="M0.969238 130.325H59.7401V195.451H0.969238V130.325ZM43.1897 192.277V189.277H31.5087V192.277H43.1897ZM43.1897 185.523V182.513H31.5087V185.523H43.1897ZM43.1897 178.758V175.758H31.5087V178.758H43.1897ZM43.1897 171.994V168.994H31.5087V171.994H43.1897ZM43.1897 165.24V162.23H31.5087V165.24H43.1897ZM43.1897 158.475V155.476H31.5087V158.475H43.1897ZM43.1897 151.721V148.711H31.5087V151.721H43.1897ZM43.1897 144.957V141.957H31.5087V144.957H43.1897ZM43.1897 138.193V135.193H31.5087V138.193H43.1897ZM25.6729 192.296V189.297H13.9919V192.296H25.6729ZM25.6729 185.542V182.532H13.9919V185.542H25.6729ZM25.6729 178.778V175.778H13.9919V178.778H25.6729ZM25.6729 172.014V169.014H13.9919V172.014H25.6729ZM25.6729 165.259V162.249H13.9919V165.259H25.6729ZM25.6729 158.495V155.495H13.9919V158.495H25.6729ZM25.6729 151.74V148.731H13.9919V151.74H25.6729ZM25.6729 144.976V141.976H13.9919V144.976H25.6729ZM25.6729 138.212V135.212H13.9919V138.212H25.6729Z" fill="#32AED4"/>
<path d="M50.4047 124.49V130.325H47.8715V125.738H38.5267V130.325H36.1905V125.738H26.8551V130.325H24.5095V125.738H15.1741V130.325H12.8379V125.738H3.49308V130.325H0.969238V124.49H50.4047Z" fill="#32AED4"/>
<path d="M43.2083 189.277H31.5273V192.277H43.2083V189.277Z" fill="#94D5D6"/>
<path d="M43.2083 182.513H31.5273V185.522H43.2083V182.513Z" fill="#94D5D6"/>
<path d="M43.2083 175.759H31.5273V178.758H43.2083V175.759Z" fill="#94D5D6"/>
<path d="M43.2083 168.985H31.5273V171.984H43.2083V168.985Z" fill="#94D5D6"/>
<path d="M43.2083 162.22H31.5273V165.23H43.2083V162.22Z" fill="#94D5D6"/>
<path d="M43.2083 155.466H31.5273V158.466H43.2083V155.466Z" fill="#94D5D6"/>
<path d="M43.2083 148.702H31.5273V151.711H43.2083V148.702Z" fill="#94D5D6"/>
<path d="M43.2083 141.938H31.5273V144.938H43.2083V141.938Z" fill="#94D5D6"/>
<path d="M43.2083 135.173H31.5273V138.173H43.2083V135.173Z" fill="#94D5D6"/>
<path d="M25.6917 189.277H14.0107V192.277H25.6917V189.277Z" fill="#94D5D6"/>
<path d="M25.6917 182.513H14.0107V185.522H25.6917V182.513Z" fill="#94D5D6"/>
<path d="M25.6917 175.759H14.0107V178.758H25.6917V175.759Z" fill="#94D5D6"/>
<path d="M25.6917 168.985H14.0107V171.984H25.6917V168.985Z" fill="#94D5D6"/>
<path d="M25.6917 162.22H14.0107V165.23H25.6917V162.22Z" fill="#94D5D6"/>
<path d="M25.6917 155.466H14.0107V158.466H25.6917V155.466Z" fill="#94D5D6"/>
<path d="M25.6917 148.702H14.0107V151.711H25.6917V148.702Z" fill="#94D5D6"/>
<path d="M25.6917 141.938H14.0107V144.938H25.6917V141.938Z" fill="#94D5D6"/>
<path d="M25.6917 135.173H14.0107V138.173H25.6917V135.173Z" fill="#94D5D6"/>
<path d="M242.086 146.96V196.254H196.122V185.938H197.341H199.931H201.432H204.021H205.523H208.122H209.623H212.212H213.713H216.303H217.804H220.394H221.895H224.484H225.976H228.575H230.067H232.666H234.167H236.766H238.258H240.856V146.96H242.086Z" fill="#3D5F9B"/>
<path d="M242.086 136.625V146.96H240.856H238.258V185.939H236.766V146.96H234.167V185.939H232.666V146.96H230.067V185.939H228.575V146.96H225.976V185.939H224.484V146.96H221.895V185.939H220.394V146.96H217.804V185.939H216.303V146.96H213.713V185.939H212.212V146.96H209.623V185.939H208.122V146.96H205.523V185.939H204.021V146.96H201.432V185.939H199.931V146.96H197.341V185.939H196.122V136.625H242.086Z" fill="#3D5F9B"/>
<path d="M240.856 146.96H238.257V185.948H240.856V146.96Z" fill="#0E4F90"/>
<path d="M236.766 146.96H234.167V185.948H236.766V146.96Z" fill="#0E4F90"/>
<path d="M232.666 146.96H230.067V185.948H232.666V146.96Z" fill="#0E4F90"/>
<path d="M228.575 146.96H225.976V185.948H228.575V146.96Z" fill="#0E4F90"/>
<path d="M224.485 146.96H221.895V185.948H224.485V146.96Z" fill="#0E4F90"/>
<path d="M220.394 146.96H217.804V185.948H220.394V146.96Z" fill="#0E4F90"/>
<path d="M216.303 146.96H213.713V185.948H216.303V146.96Z" fill="#0E4F90"/>
<path d="M212.213 146.96H209.623V185.948H212.213V146.96Z" fill="#0E4F90"/>
<path d="M208.112 146.96H205.523V185.948H208.112V146.96Z" fill="#0E4F90"/>
<path d="M204.022 146.96H201.432V185.948H204.022V146.96Z" fill="#0E4F90"/>
<path d="M199.931 146.96H197.341V185.948H199.931V146.96Z" fill="#0E4F90"/>
<path d="M124.093 152.282H123.268V145.315H156.509V146.166H124.093V152.282Z" fill="#32AED4"/>
<path d="M127.33 145.74H126.504V152.282H127.33V145.74Z" fill="#32AED4"/>
<path d="M131.045 145.74H130.22V152.282H131.045V145.74Z" fill="#32AED4"/>
<path d="M134.761 145.74H133.936V152.282H134.761V145.74Z" fill="#32AED4"/>
<path d="M138.477 145.74H137.651V152.282H138.477V145.74Z" fill="#32AED4"/>
<path d="M142.192 145.74H141.366V152.282H142.192V145.74Z" fill="#32AED4"/>
<path d="M145.907 145.74H145.082V152.282H145.907V145.74Z" fill="#32AED4"/>
<path d="M153.338 145.74H152.512V152.282H153.338V145.74Z" fill="#32AED4"/>
<path d="M149.623 145.74H148.797V152.282H149.623V145.74Z" fill="#32AED4"/>
<path d="M136.084 138.086V248.045H94.8115V138.086H136.084ZM124.46 242.684V237.614H116.26V242.684H124.46ZM124.46 231.266V226.195H116.26V231.266H124.46ZM124.46 219.847V214.776H116.26V219.847H124.46ZM124.46 208.428V203.357H116.26V208.428H124.46ZM124.46 197.009V191.938H116.26V197.009H124.46ZM124.46 185.59V180.52H116.26V185.59H124.46ZM124.46 174.172V169.101H116.26V174.172H124.46ZM124.46 162.753V157.682H116.26V162.753H124.46ZM124.46 151.334V146.263H116.26V151.334H124.46ZM112.159 242.684V237.614H103.959V242.684H112.159ZM112.159 231.266V226.195H103.959V231.266H112.159ZM112.159 219.847V214.776H103.959V219.847H112.159ZM112.159 208.428V203.357H103.959V208.428H112.159ZM112.159 197.009V191.938H103.959V197.009H112.159ZM112.159 185.59V180.52H103.959V185.59H112.159ZM112.159 174.172V169.101H103.959V174.172H112.159ZM112.159 162.753V157.682H103.959V162.753H112.159ZM112.159 151.334V146.263H103.959V151.334H112.159Z" fill="#32AED4"/>
<path d="M124.46 237.614H116.26V242.684H124.46V237.614Z" fill="#94D5D6"/>
<path d="M124.46 226.195H116.26V231.265H124.46V226.195Z" fill="#94D5D6"/>
<path d="M124.46 214.776H116.26V219.846H124.46V214.776Z" fill="#94D5D6"/>
<path d="M124.46 203.357H116.26V208.428H124.46V203.357Z" fill="#94D5D6"/>
<path d="M124.46 191.938H116.26V197.009H124.46V191.938Z" fill="#94D5D6"/>
<path d="M124.46 180.519H116.26V185.59H124.46V180.519Z" fill="#94D5D6"/>
<path d="M124.46 169.101H116.26V174.171H124.46V169.101Z" fill="#94D5D6"/>
<path d="M124.46 157.691H116.26V162.762H124.46V157.691Z" fill="#94D5D6"/>
<path d="M124.46 146.273H116.26V151.343H124.46V146.273Z" fill="#94D5D6"/>
<path d="M112.16 237.614H103.959V242.684H112.16V237.614Z" fill="#94D5D6"/>
<path d="M112.16 226.195H103.959V231.265H112.16V226.195Z" fill="#94D5D6"/>
<path d="M112.16 214.776H103.959V219.846H112.16V214.776Z" fill="#94D5D6"/>
<path d="M112.16 203.357H103.959V208.428H112.16V203.357Z" fill="#94D5D6"/>
<path d="M112.16 191.938H103.959V197.009H112.16V191.938Z" fill="#94D5D6"/>
<path d="M112.16 180.519H103.959V185.59H112.16V180.519Z" fill="#94D5D6"/>
<path d="M112.16 169.101H103.959V174.171H112.16V169.101Z" fill="#94D5D6"/>
<path d="M112.16 157.691H103.959V162.762H112.16V157.691Z" fill="#94D5D6"/>
<path d="M112.16 146.273H103.959V151.343H112.16V146.273Z" fill="#94D5D6"/>
<path d="M204.979 111.417V184.613H178.708V111.417H204.979ZM188.841 163.769V154.943H186.486V163.769H188.841ZM188.841 145.45V136.635H186.486V145.45H188.841ZM188.841 128.158V119.332H186.486V128.158H188.841ZM185.313 163.778V154.953H182.968V163.778H185.313ZM185.313 145.46V136.644H182.968V145.46H185.313ZM185.313 128.167V119.342H182.968V128.167H185.313Z" fill="#A1D9D7"/>
<path d="M188.841 154.943H186.486V163.769H188.841V154.943Z" fill="#D7EDE6"/>
<path d="M188.841 136.625H186.486V145.441H188.841V136.625Z" fill="#D7EDE6"/>
<path d="M188.841 119.323H186.486V128.148H188.841V119.323Z" fill="#D7EDE6"/>
<path d="M185.313 154.943H182.968V163.769H185.313V154.943Z" fill="#D7EDE6"/>
<path d="M185.313 136.625H182.968V145.441H185.313V136.625Z" fill="#D7EDE6"/>
<path d="M185.313 119.323H182.968V128.148H185.313V119.323Z" fill="#D7EDE6"/>
<path d="M204.622 112.065C204.444 112.065 204.303 111.919 204.303 111.736V105.929H181.832V111.736C181.832 111.919 181.692 112.065 181.513 112.065C181.335 112.065 181.194 111.919 181.194 111.736V105.591C181.194 105.407 181.335 105.262 181.513 105.262H204.631C204.81 105.262 204.95 105.407 204.95 105.591V111.736C204.95 111.919 204.81 112.065 204.631 112.065H204.622Z" fill="#A1D9D7"/>
<path d="M183.793 112.065C183.615 112.065 183.474 111.919 183.474 111.736V105.591C183.474 105.407 183.615 105.262 183.793 105.262C183.971 105.262 184.112 105.407 184.112 105.591V111.736C184.112 111.919 183.971 112.065 183.793 112.065Z" fill="#A1D9D7"/>
<path d="M186.402 112.065C186.223 112.065 186.083 111.919 186.083 111.736V105.591C186.083 105.407 186.223 105.262 186.402 105.262C186.58 105.262 186.721 105.407 186.721 105.591V111.736C186.721 111.919 186.58 112.065 186.402 112.065Z" fill="#A1D9D7"/>
<path d="M189.019 112.065C188.841 112.065 188.7 111.919 188.7 111.736V105.591C188.7 105.407 188.841 105.262 189.019 105.262C189.197 105.262 189.338 105.407 189.338 105.591V111.736C189.338 111.919 189.197 112.065 189.019 112.065Z" fill="#A1D9D7"/>
<path d="M191.637 112.065C191.459 112.065 191.318 111.919 191.318 111.736V105.591C191.318 105.407 191.459 105.262 191.637 105.262C191.815 105.262 191.956 105.407 191.956 105.591V111.736C191.956 111.919 191.815 112.065 191.637 112.065Z" fill="#A1D9D7"/>
<path d="M194.255 112.065C194.076 112.065 193.936 111.919 193.936 111.736V105.591C193.936 105.407 194.076 105.262 194.255 105.262C194.433 105.262 194.574 105.407 194.574 105.591V111.736C194.574 111.919 194.433 112.065 194.255 112.065Z" fill="#A1D9D7"/>
<path d="M196.872 112.065C196.694 112.065 196.553 111.919 196.553 111.736V105.591C196.553 105.407 196.694 105.262 196.872 105.262C197.05 105.262 197.191 105.407 197.191 105.591V111.736C197.191 111.919 197.05 112.065 196.872 112.065Z" fill="#A1D9D7"/>
<path d="M202.098 112.065C201.92 112.065 201.779 111.919 201.779 111.736V105.591C201.779 105.407 201.92 105.262 202.098 105.262C202.277 105.262 202.417 105.407 202.417 105.591V111.736C202.417 111.919 202.277 112.065 202.098 112.065Z" fill="#A1D9D7"/>
<path d="M199.481 112.065C199.302 112.065 199.162 111.919 199.162 111.736V105.591C199.162 105.407 199.302 105.262 199.481 105.262C199.659 105.262 199.8 105.407 199.8 105.591V111.736C199.8 111.919 199.659 112.065 199.481 112.065Z" fill="#A1D9D7"/>
<path d="M100.694 141.938V245.026H83.271V141.938H100.694ZM96.9504 236.53V224.105H92.9723V236.53H96.9504ZM96.9504 211.912V199.486H92.9723V211.912H96.9504ZM96.9504 186.103V173.678H92.9723V186.103H96.9504ZM96.9504 161.737V149.311H92.9723V161.737H96.9504ZM90.9833 236.53V224.105H86.9958V236.53H90.9833ZM90.9833 211.912V199.486H86.9958V211.912H90.9833ZM90.9833 186.103V173.678H86.9958V186.103H90.9833ZM90.9833 161.737V149.311H86.9958V161.737H90.9833Z" fill="#0E4F90"/>
<path d="M96.9595 224.104H92.9814V236.53H96.9595V224.104Z" fill="#32AED4"/>
<path d="M96.9595 199.486H92.9814V211.911H96.9595V199.486Z" fill="#32AED4"/>
<path d="M96.9595 173.678H92.9814V186.103H96.9595V173.678Z" fill="#32AED4"/>
<path d="M96.9595 149.311H92.9814V161.736H96.9595V149.311Z" fill="#32AED4"/>
<path d="M90.9929 224.104H87.0054V236.53H90.9929V224.104Z" fill="#32AED4"/>
<path d="M90.9929 199.486H87.0054V211.911H90.9929V199.486Z" fill="#32AED4"/>
<path d="M90.9929 173.678H87.0054V186.103H90.9929V173.678Z" fill="#32AED4"/>
<path d="M90.9929 149.311H87.0054V161.736H90.9929V149.311Z" fill="#32AED4"/>
<path d="M196.769 179.668V242.82H157.954V179.668H196.769ZM189.385 224.831V217.215H185.913V224.831H189.385ZM189.385 209.018V201.403H185.913V209.018H189.385ZM189.385 194.087V186.471H185.913V194.087H189.385ZM184.178 224.821V217.205H180.706V224.821H184.178ZM184.178 209.009V201.393H180.706V209.009H184.178ZM184.178 194.077V186.461H180.706V194.077H184.178ZM172.91 224.811V217.195H169.438V224.811H172.91ZM172.91 208.999V201.383H169.438V208.999H172.91ZM172.91 194.068V186.452H169.438V194.068H172.91ZM167.702 224.802V217.186H164.231V224.802H167.702ZM167.702 208.989V201.374H164.231V208.989H167.702ZM167.702 194.058V186.442H164.231V194.058H167.702Z" fill="#0E4F90"/>
<path d="M189.394 217.225H185.923V224.84H189.394V217.225Z" fill="#32AED4"/>
<path d="M189.394 201.422H185.923V209.038H189.394V201.422Z" fill="#32AED4"/>
<path d="M189.394 186.491H185.923V194.106H189.394V186.491Z" fill="#32AED4"/>
<path d="M184.178 217.225H180.706V224.84H184.178V217.225Z" fill="#80C1AF"/>
<path d="M184.178 201.422H180.706V209.038H184.178V201.422Z" fill="#80C1AF"/>
<path d="M184.178 186.491H180.706V194.106H184.178V186.491Z" fill="#80C1AF"/>
<path d="M172.919 217.225H169.448V224.84H172.919V217.225Z" fill="#32AED4"/>
<path d="M172.919 201.422H169.448V209.038H172.919V201.422Z" fill="#32AED4"/>
<path d="M172.919 186.491H169.448V194.106H172.919V186.491Z" fill="#32AED4"/>
<path d="M167.712 217.225H164.24V224.84H167.712V217.225Z" fill="#80C1AF"/>
<path d="M167.712 201.422H164.24V209.038H167.712V201.422Z" fill="#80C1AF"/>
<path d="M167.712 186.491H164.24V194.106H167.712V186.491Z" fill="#80C1AF"/>
<path d="M197.172 179.668H196.356V174.791H163.011V179.668H162.186V173.949H197.172V179.668Z" fill="#0E4F90"/>
<path d="M166.379 174.375H165.563V179.678H166.379V174.375Z" fill="#0E4F90"/>
<path d="M170.245 174.375H169.429V179.678H170.245V174.375Z" fill="#0E4F90"/>
<path d="M174.111 174.375H173.294V179.678H174.111V174.375Z" fill="#0E4F90"/>
<path d="M177.976 174.375H177.16V179.678H177.976V174.375Z" fill="#0E4F90"/>
<path d="M181.841 174.375H181.025V179.678H181.841V174.375Z" fill="#0E4F90"/>
<path d="M185.707 174.375H184.891V179.678H185.707V174.375Z" fill="#0E4F90"/>
<path d="M193.438 174.375H192.622V179.678H193.438V174.375Z" fill="#0E4F90"/>
<path d="M189.572 174.375H188.756V179.678H189.572V174.375Z" fill="#0E4F90"/>
<path d="M118.708 196.612H144.688V300.078H92.7285V196.612H118.708ZM124.872 212.831V208.602H116.954V212.831H124.872ZM124.872 206.067V201.838H116.954V206.067H124.872ZM114.214 226.369V222.14H106.295V226.369H114.214ZM114.214 219.605V215.376H106.295V219.605H114.214ZM114.214 212.841V208.612H106.295V212.841H114.214ZM114.214 206.076V201.848H106.295V206.076H114.214ZM103.556 233.143V228.914H95.637V233.143H103.556ZM103.556 226.379V222.15H95.637V226.379H103.556ZM103.556 219.614V215.386H95.637V219.614H103.556ZM103.556 212.85V208.621H95.637V212.85H103.556ZM103.556 206.086V201.857H95.637V206.086H103.556Z" fill="#0E4F90"/>
<path d="M144.688 189.993H118.708V196.612H144.688V189.993Z" fill="#3D5F9B"/>
<path d="M124.872 208.602H116.954V212.831H124.872V208.602Z" fill="#32AED4"/>
<path d="M124.872 201.828H116.954V206.057H124.872V201.828Z" fill="#7BBDAE"/>
<path d="M114.205 222.131H106.286V226.359H114.205V222.131Z" fill="#32AED4"/>
<path d="M114.205 215.366H106.286V219.595H114.205V215.366Z" fill="#7BBDAE"/>
<path d="M114.205 208.602H106.286V212.831H114.205V208.602Z" fill="#32AED4"/>
<path d="M114.205 201.828H106.286V206.057H114.205V201.828Z" fill="#32AED4"/>
<path d="M103.546 228.895H95.6274V233.124H103.546V228.895Z" fill="#32AED4"/>
<path d="M103.546 222.131H95.6274V226.359H103.546V222.131Z" fill="#32AED4"/>
<path d="M103.546 215.366H95.6274V219.595H103.546V215.366Z" fill="#32AED4"/>
<path d="M103.546 208.602H95.6274V212.831H103.546V208.602Z" fill="#7BBDAE"/>
<path d="M103.546 201.828H95.6274V206.057H103.546V201.828Z" fill="#32AED4"/>
<path d="M84.9504 161.659V259.774H31.6494V161.659H84.9504ZM65.2663 178.855V172.372H62.2545V178.855H65.2663ZM65.2663 170.397V163.914H62.2545V170.397H65.2663ZM60.3499 178.855V172.372H57.3382V178.855H60.3499ZM60.3499 170.397V163.914H57.3382V170.397H60.3499ZM53.7917 187.313V180.829H50.78V187.313H53.7917ZM53.7917 178.855V172.372H50.78V178.855H53.7917ZM53.7917 170.397V163.914H50.78V170.397H53.7917ZM48.8754 187.313V180.829H45.8636V187.313H48.8754ZM48.8754 178.855V172.372H45.8636V178.855H48.8754ZM48.8754 170.397V163.914H45.8636V170.397H48.8754ZM42.3171 195.77V189.287H39.3054V195.77H42.3171ZM42.3171 187.313V180.829H39.3054V187.313H42.3171ZM42.3171 178.855V172.372H39.3054V178.855H42.3171ZM42.3171 170.397V163.914H39.3054V170.397H42.3171ZM37.4008 195.77V189.287H34.3891V195.77H37.4008ZM37.4008 187.313V180.829H34.3891V187.313H37.4008ZM37.4008 178.855V172.372H34.3891V178.855H37.4008ZM37.4008 170.397V163.914H34.3891V170.397H37.4008Z" fill="#3D5F9B"/>
<path d="M65.2759 172.362H62.2642V178.845H65.2759V172.362Z" fill="#32AED4"/>
<path d="M65.2759 163.904H62.2642V170.388H65.2759V163.904Z" fill="#32AED4"/>
<path d="M60.3501 172.362H57.3384V178.845H60.3501V172.362Z" fill="#32AED4"/>
<path d="M60.3501 163.904H57.3384V170.388H60.3501V163.904Z" fill="#32AED4"/>
<path d="M53.792 180.82H50.7803V187.303H53.792V180.82Z" fill="#32AED4"/>
<path d="M53.792 172.362H50.7803V178.845H53.792V172.362Z" fill="#32AED4"/>
<path d="M53.792 163.904H50.7803V170.388H53.792V163.904Z" fill="#32AED4"/>
<path d="M48.8755 180.82H45.8638V187.303H48.8755V180.82Z" fill="#32AED4"/>
<path d="M48.8755 172.362H45.8638V178.845H48.8755V172.362Z" fill="#32AED4"/>
<path d="M48.8755 163.904H45.8638V170.388H48.8755V163.904Z" fill="#32AED4"/>
<path d="M42.3076 189.277H39.2959V195.761H42.3076V189.277Z" fill="#32AED4"/>
<path d="M42.3076 180.82H39.2959V187.303H42.3076V180.82Z" fill="#32AED4"/>
<path d="M42.3076 172.362H39.2959V178.845H42.3076V172.362Z" fill="#32AED4"/>
<path d="M42.3076 163.904H39.2959V170.388H42.3076V163.904Z" fill="#32AED4"/>
<path d="M37.3916 189.277H34.3799V195.761H37.3916V189.277Z" fill="#32AED4"/>
<path d="M37.3916 180.82H34.3799V187.303H37.3916V180.82Z" fill="#32AED4"/>
<path d="M37.3916 172.362H34.3799V178.845H37.3916V172.362Z" fill="#32AED4"/>
<path d="M37.3916 163.904H34.3799V170.388H37.3916V163.904Z" fill="#32AED4"/>
<path d="M47.3933 192.713C47.1587 192.713 46.9805 192.519 46.9805 192.287V187.235H13.6357V192.287C13.6357 192.529 13.4481 192.713 13.2229 192.713C12.9977 192.713 12.8101 192.519 12.8101 192.287V186.81C12.8101 186.568 12.9977 186.384 13.2229 186.384H47.3933C47.6278 186.384 47.8061 186.577 47.8061 186.81V192.287C47.8061 192.529 47.6185 192.713 47.3933 192.713Z" fill="#0E4F90"/>
<path d="M16.6003 192.713C16.3658 192.713 16.1875 192.519 16.1875 192.287V186.81C16.1875 186.568 16.3751 186.384 16.6003 186.384C16.8255 186.384 17.0131 186.577 17.0131 186.81V192.287C17.0131 192.529 16.8255 192.713 16.6003 192.713Z" fill="#0E4F90"/>
<path d="M20.466 192.713C20.2315 192.713 20.0532 192.519 20.0532 192.287V186.81C20.0532 186.568 20.2409 186.384 20.466 186.384C20.6912 186.384 20.8789 186.577 20.8789 186.81V192.287C20.8789 192.529 20.6912 192.713 20.466 192.713Z" fill="#0E4F90"/>
<path d="M24.3318 192.713C24.0972 192.713 23.9189 192.519 23.9189 192.287V186.81C23.9189 186.568 24.1066 186.384 24.3318 186.384C24.5569 186.384 24.7446 186.577 24.7446 186.81V192.287C24.7446 192.529 24.5569 192.713 24.3318 192.713Z" fill="#0E4F90"/>
<path d="M28.197 192.713C27.9624 192.713 27.7842 192.519 27.7842 192.287V186.81C27.7842 186.568 27.9718 186.384 28.197 186.384C28.4222 186.384 28.6098 186.577 28.6098 186.81V192.287C28.6098 192.529 28.4222 192.713 28.197 192.713Z" fill="#0E4F90"/>
<path d="M32.0627 192.713C31.8282 192.713 31.6499 192.519 31.6499 192.287V186.81C31.6499 186.568 31.8375 186.384 32.0627 186.384C32.2879 186.384 32.4755 186.577 32.4755 186.81V192.287C32.4755 192.529 32.2879 192.713 32.0627 192.713Z" fill="#0E4F90"/>
<path d="M35.9284 192.713C35.6939 192.713 35.5156 192.519 35.5156 192.287V186.81C35.5156 186.568 35.7033 186.384 35.9284 186.384C36.1536 186.384 36.3413 186.577 36.3413 186.81V192.287C36.3413 192.529 36.1536 192.713 35.9284 192.713Z" fill="#0E4F90"/>
<path d="M43.6594 192.713C43.4248 192.713 43.2466 192.519 43.2466 192.287V186.81C43.2466 186.568 43.4342 186.384 43.6594 186.384C43.8846 186.384 44.0722 186.577 44.0722 186.81V192.287C44.0722 192.529 43.8846 192.713 43.6594 192.713Z" fill="#0E4F90"/>
<path d="M39.7937 192.713C39.5591 192.713 39.3809 192.519 39.3809 192.287V186.81C39.3809 186.568 39.5685 186.384 39.7937 186.384C40.0189 186.384 40.2065 186.577 40.2065 186.81V192.287C40.2065 192.529 40.0189 192.713 39.7937 192.713Z" fill="#0E4F90"/>
<path d="M47.3933 192.287V257.548H8.57861V192.287H47.3933ZM40.0094 238.968V231.101H36.5379V238.968H40.0094ZM40.0094 222.634V214.766H36.5379V222.634H40.0094ZM40.0094 207.208V199.341H36.5379V207.208H40.0094ZM34.8022 238.978V231.111H31.3307V238.978H34.8022ZM34.8022 222.643V214.776H31.3307V222.643H34.8022ZM34.8022 207.218V199.351H31.3307V207.218H34.8022ZM23.534 238.988V231.12H20.0626V238.988H23.534ZM23.534 222.653V214.786H20.0626V222.653H23.534ZM23.534 207.228V199.36H20.0626V207.228H23.534ZM18.3268 238.997V231.13H14.8554V238.997H18.3268ZM18.3268 222.663V214.795H14.8554V222.663H18.3268ZM18.3268 207.238V199.37H14.8554V207.238H18.3268Z" fill="#0E4F90"/>
<path d="M40.0188 231.091H36.5474V238.959H40.0188V231.091Z" fill="#32AED4"/>
<path d="M40.0188 214.757H36.5474V222.624H40.0188V214.757Z" fill="#32AED4"/>
<path d="M40.0188 199.332H36.5474V207.199H40.0188V199.332Z" fill="#32AED4"/>
<path d="M34.8113 231.091H31.3398V238.959H34.8113V231.091Z" fill="#7BBDAE"/>
<path d="M34.8113 214.757H31.3398V222.624H34.8113V214.757Z" fill="#7BBDAE"/>
<path d="M34.8113 199.332H31.3398V207.199H34.8113V199.332Z" fill="#7BBDAE"/>
<path d="M23.5432 231.091H20.0718V238.959H23.5432V231.091Z" fill="#32AED4"/>
<path d="M23.5432 214.757H20.0718V222.624H23.5432V214.757Z" fill="#32AED4"/>
<path d="M23.5432 199.332H20.0718V207.199H23.5432V199.332Z" fill="#32AED4"/>
<path d="M18.3362 231.091H14.8647V238.959H18.3362V231.091Z" fill="#7BBDAE"/>
<path d="M18.3362 214.757H14.8647V222.624H18.3362V214.757Z" fill="#7BBDAE"/>
<path d="M18.3362 199.332H14.8647V207.199H18.3362V199.332Z" fill="#80C1AF"/>
<path d="M66.7302 256.532V352.953H8.23145V256.532H66.7302ZM49.3073 345.356V327.386H38.4425V345.356H49.3073ZM49.3073 313.219V295.249H38.4425V313.219H49.3073ZM49.3073 281.082V263.112H38.4425V281.082H49.3073ZM27.9812 345.366V327.396H17.1165V345.366H27.9812ZM27.9812 313.229V295.259H17.1165V313.229H27.9812ZM27.9812 281.092V263.122H17.1165V281.092H27.9812Z" fill="#0E4168"/>
<path d="M53.6137 254.239V256.532H43.4995V251.945H49.6168V254.239H53.6137Z" fill="#0E4168"/>
<path d="M53.6136 251.945H49.6167V254.239H53.6136V251.945Z" fill="#0A64AB"/>
<path d="M49.3071 337.635H38.4424V345.357H49.3071V337.635Z" fill="#7BBDAE"/>
<path d="M49.3071 335.099H38.4424V337.634H49.3071V335.099Z" fill="#0E4168"/>
<path d="M49.3071 327.387H38.4424V335.099H49.3071V327.387Z" fill="#7BBDAE"/>
<path d="M49.3071 305.497H38.4424V313.22H49.3071V305.497Z" fill="#7BBDAE"/>
<path d="M49.3071 302.962H38.4424V305.497H49.3071V302.962Z" fill="#0E4168"/>
<path d="M49.3071 295.24H38.4424V302.952H49.3071V295.24Z" fill="#7BBDAE"/>
<path d="M49.3071 273.351H38.4424V281.073H49.3071V273.351Z" fill="#7BBDAE"/>
<path d="M49.3071 270.815H38.4424V273.351H49.3071V270.815Z" fill="#0E4168"/>
<path d="M49.3071 263.103H38.4424V270.815H49.3071V263.103Z" fill="#7BBDAE"/>
<path d="M35.9749 254.239V256.532H25.8701V251.945H31.5746V254.239H35.9749Z" fill="#0E4168"/>
<path d="M35.9745 251.945H31.5742V254.239H35.9745V251.945Z" fill="#0A64AB"/>
<path d="M27.9809 337.635H17.1162V345.357H27.9809V337.635Z" fill="#7BBDAE"/>
<path d="M27.9809 335.099H17.1162V337.634H27.9809V335.099Z" fill="#0E4168"/>
<path d="M27.9809 327.387H17.1162V335.099H27.9809V327.387Z" fill="#7BBDAE"/>
<path d="M27.9809 305.497H17.1162V313.22H27.9809V305.497Z" fill="#7BBDAE"/>
<path d="M27.9809 302.962H17.1162V305.497H27.9809V302.962Z" fill="#0E4168"/>
<path d="M27.9809 295.24H17.1162V302.952H27.9809V295.24Z" fill="#7BBDAE"/>
<path d="M27.9809 273.351H17.1162V281.073H27.9809V273.351Z" fill="#7BBDAE"/>
<path d="M27.9809 270.815H17.1162V273.351H27.9809V270.815Z" fill="#0E4168"/>
<path d="M27.9809 263.103H17.1162V270.815H27.9809V263.103Z" fill="#7BBDAE"/>
<path d="M18.3456 254.239V256.532H8.23145V251.945H14.3487V254.239H18.3456Z" fill="#0E4168"/>
<path d="M18.3455 251.945H14.3486V254.239H18.3455V251.945Z" fill="#0A64AB"/>
<path d="M66.7394 242.636H108.012V352.595H66.73V242.636H66.7394ZM96.3969 347.234V342.163H88.1967V347.234H96.3969ZM96.3969 335.815V330.744H88.1967V335.815H96.3969ZM96.3969 324.396V319.326H88.1967V324.396H96.3969ZM96.3969 312.977V307.907H88.1967V312.977H96.3969ZM96.3969 301.559V296.488H88.1967V301.559H96.3969ZM96.3969 290.14V285.069H88.1967V290.14H96.3969ZM96.3969 278.721V273.65H88.1967V278.721H96.3969ZM96.3969 267.302V262.232H88.1967V267.302H96.3969ZM96.3969 255.883V250.813H88.1967V255.883H96.3969ZM84.0967 347.234V342.163H75.8965V347.234H84.0967ZM84.0967 335.815V330.744H75.8965V335.815H84.0967ZM84.0967 324.396V319.326H75.8965V324.396H84.0967ZM84.0967 312.977V307.907H75.8965V312.977H84.0967ZM84.0967 301.559V296.488H75.8965V301.559H84.0967ZM84.0967 290.14V285.069H75.8965V290.14H84.0967ZM84.0967 278.721V273.65H75.8965V278.721H84.0967ZM84.0967 267.302V262.232H75.8965V267.302H84.0967ZM84.0967 255.883V250.813H75.8965V255.883H84.0967Z" fill="#0C3A5D"/>
<path d="M101.454 232.775V242.636H99.6712V234.884H93.113V242.636H91.4711V234.884H84.9128V242.636H83.2709V234.884H76.7127V242.636H75.0708V234.884H68.5125V242.636H66.7393V232.775H101.454Z" fill="#0E4168"/>
<path d="M96.3872 342.163H88.187V347.234H96.3872V342.163Z" fill="#016AB2"/>
<path d="M96.3872 330.745H88.187V335.815H96.3872V330.745Z" fill="#016AB2"/>
<path d="M96.3872 319.326H88.187V324.396H96.3872V319.326Z" fill="#016AB2"/>
<path d="M96.3872 307.907H88.187V312.977H96.3872V307.907Z" fill="#016AB2"/>
<path d="M96.3872 296.488H88.187V301.559H96.3872V296.488Z" fill="#016AB2"/>
<path d="M96.3872 285.069H88.187V290.14H96.3872V285.069Z" fill="#016AB2"/>
<path d="M96.3872 273.65H88.187V278.721H96.3872V273.65Z" fill="#7BBDAE"/>
<path d="M96.3872 262.232H88.187V267.303H96.3872V262.232Z" fill="#7BBDAE"/>
<path d="M96.3872 250.813H88.187V255.884H96.3872V250.813Z" fill="#016AB2"/>
<path d="M84.0874 342.163H75.8872V347.234H84.0874V342.163Z" fill="#016AB2"/>
<path d="M84.0874 330.745H75.8872V335.815H84.0874V330.745Z" fill="#016AB2"/>
<path d="M84.0874 319.326H75.8872V324.396H84.0874V319.326Z" fill="#016AB2"/>
<path d="M84.0874 307.907H75.8872V312.977H84.0874V307.907Z" fill="#016AB2"/>
<path d="M84.0874 296.488H75.8872V301.559H84.0874V296.488Z" fill="#016AB2"/>
<path d="M84.0874 285.069H75.8872V290.14H84.0874V285.069Z" fill="#7BBDAE"/>
<path d="M84.0874 273.65H75.8872V278.721H84.0874V273.65Z" fill="#016AB2"/>
<path d="M84.0874 262.232H75.8872V267.303H84.0874V262.232Z" fill="#016AB2"/>
<path d="M84.0874 250.813H75.8872V255.884H84.0874V250.813Z" fill="#7BBDAE"/>
<path d="M256.703 318.901V352.954H170.686V318.901H256.703ZM251.355 345.261V325.529H243.727V345.261H251.355ZM237.741 345.261V325.529H230.114V345.261H237.741ZM224.128 345.261V325.529H216.5V345.261H224.128ZM210.514 345.261V325.529H202.886V345.261H210.514ZM196.9 345.261V325.529H189.272V345.261H196.9ZM183.286 345.261V325.529H175.659V345.261H183.286Z" fill="#0E4168"/>
<path d="M256.703 312.562H170.686V318.91H256.703V312.562Z" fill="#0A3351"/>
<path d="M256.703 276.186V312.552H170.686V276.186H256.703ZM251.355 303.824V284.092H243.727V303.824H251.355ZM237.741 303.824V284.092H230.114V303.824H237.741ZM224.128 303.824V284.092H216.5V303.824H224.128ZM210.514 303.824V284.092H202.886V303.824H210.514ZM196.9 303.824V284.092H189.272V303.824H196.9ZM183.286 303.824V284.092H175.659V303.824H183.286Z" fill="#0E4168"/>
<path d="M256.703 269.848H170.686V276.196H256.703V269.848Z" fill="#0A3351"/>
<path d="M256.703 233.472V269.838H170.686V233.472H256.703ZM251.355 261.526V241.795H243.727V261.526H251.355ZM237.741 261.526V241.795H230.114V261.526H237.741ZM224.128 261.526V241.795H216.5V261.526H224.128ZM210.514 261.526V241.795H202.886V261.526H210.514ZM196.9 261.526V241.795H189.272V261.526H196.9ZM183.286 261.526V241.795H175.659V261.526H183.286Z" fill="#0E4168"/>
<path d="M256.703 227.134H170.686V233.482H256.703V227.134Z" fill="#0A3351"/>
<path d="M256.703 183.994V227.134H170.686V183.994H256.703ZM254.254 195.558V186.258H249.601V195.558H254.254ZM251.355 221.782V202.051H243.727V221.782H251.355ZM246.627 195.558V186.258H241.973V195.558H246.627ZM238.999 195.558V186.258H234.345V195.558H238.999ZM237.741 221.782V202.051H230.114V221.782H237.741ZM231.371 195.558V186.258H226.717V195.558H231.371ZM224.128 221.782V202.051H216.5V221.782H224.128ZM223.743 195.558V186.258H219.089V195.558H223.743ZM216.115 195.558V186.258H211.462V195.558H216.115ZM210.514 221.782V202.051H202.886V221.782H210.514ZM208.487 195.558V186.258H203.834V195.558H208.487ZM200.86 195.558V186.258H196.206V195.558H200.86ZM196.9 221.782V202.051H189.272V221.782H196.9ZM193.232 195.558V186.258H188.578V195.558H193.232ZM185.604 195.558V186.258H180.95V195.558H185.604ZM183.286 221.782V202.051H175.659V221.782H183.286ZM177.976 195.558V186.258H173.322V195.558H177.976Z" fill="#0E4168"/>
<path d="M251.365 325.529H243.737V345.261H251.365V325.529Z" fill="#0A3351"/>
<path d="M251.365 284.092H243.737V303.824H251.365V284.092Z" fill="#7BBDAE"/>
<path d="M251.365 241.794H243.737V261.526H251.365V241.794Z" fill="#0A3351"/>
<path d="M251.365 202.042H243.737V221.773H251.365V202.042Z" fill="#7BBDAE"/>
<path d="M237.751 325.529H230.123V345.261H237.751V325.529Z" fill="#7BBDAE"/>
<path d="M237.751 284.092H230.123V303.824H237.751V284.092Z" fill="#016AB2"/>
<path d="M237.751 241.794H230.123V261.526H237.751V241.794Z" fill="#7BBDAE"/>
<path d="M237.751 202.042H230.123V221.773H237.751V202.042Z" fill="#7BBDAE"/>
<path d="M224.137 325.529H216.509V345.261H224.137V325.529Z" fill="#0A3351"/>
<path d="M224.137 284.092H216.509V303.824H224.137V284.092Z" fill="#0A3351"/>
<path d="M224.137 241.794H216.509V261.526H224.137V241.794Z" fill="#016AB2"/>
<path d="M224.137 202.042H216.509V221.773H224.137V202.042Z" fill="#0A3351"/>
<path d="M210.523 325.529H202.896V345.261H210.523V325.529Z" fill="#016AB2"/>
<path d="M210.523 284.092H202.896V303.824H210.523V284.092Z" fill="#7BBDAE"/>
<path d="M210.523 241.794H202.896V261.526H210.523V241.794Z" fill="#0A3351"/>
<path d="M210.523 202.042H202.896V221.773H210.523V202.042Z" fill="#016AB2"/>
<path d="M196.91 325.529H189.282V345.261H196.91V325.529Z" fill="#016AB2"/>
<path d="M196.91 284.092H189.282V303.824H196.91V284.092Z" fill="#0A3351"/>
<path d="M196.91 241.794H189.282V261.526H196.91V241.794Z" fill="#7BBDAE"/>
<path d="M196.91 202.042H189.282V221.773H196.91V202.042Z" fill="#7BBDAE"/>
<path d="M183.296 325.529H175.668V345.261H183.296V325.529Z" fill="#016AB2"/>
<path d="M183.296 284.092H175.668V303.824H183.296V284.092Z" fill="#016AB2"/>
<path d="M183.296 241.794H175.668V261.526H183.296V241.794Z" fill="#7BBDAE"/>
<path d="M183.296 202.042H175.668V221.773H183.296V202.042Z" fill="#016AB2"/>
<path d="M173.951 239.684V313.268H141.554V239.684H173.951ZM168.003 306.784V300.717H159.803V306.784H168.003ZM168.003 293.149V287.082H159.803V293.149H168.003ZM168.003 279.505V273.438H159.803V279.505H168.003ZM168.003 265.87V259.803H159.803V265.87H168.003ZM168.003 252.226V246.158H159.803V252.226H168.003ZM155.703 306.784V300.717H147.503V306.784H155.703ZM155.703 293.149V287.082H147.503V293.149H155.703ZM155.703 279.505V273.438H147.503V279.505H155.703ZM155.703 265.87V259.803H147.503V265.87H155.703ZM155.703 252.226V246.158H147.503V252.226H155.703Z" fill="#0E4168"/>
<path d="M168.013 300.717H159.812V306.784H168.013V300.717Z" fill="#016AB2"/>
<path d="M168.013 287.082H159.812V293.15H168.013V287.082Z" fill="#016AB2"/>
<path d="M168.013 273.438H159.812V279.505H168.013V273.438Z" fill="#7BBDAE"/>
<path d="M168.013 259.803H159.812V265.87H168.013V259.803Z" fill="#016AB2"/>
<path d="M168.013 246.158H159.812V252.226H168.013V246.158Z" fill="#7BBDAE"/>
<path d="M155.703 300.717H147.502V306.784H155.703V300.717Z" fill="#016AB2"/>
<path d="M155.703 287.082H147.502V293.15H155.703V287.082Z" fill="#016AB2"/>
<path d="M155.703 273.438H147.502V279.505H155.703V273.438Z" fill="#016AB2"/>
<path d="M155.703 259.803H147.502V265.87H155.703V259.803Z" fill="#7BBDAE"/>
<path d="M155.703 246.158H147.502V252.226H155.703V246.158Z" fill="#016AB2"/>
<path d="M147.512 234.885H141.564V239.685H147.512V234.885Z" fill="#0E4168"/>
<path d="M200.316 295.085V353.728H61.2695V295.085H200.316ZM196.187 348.928V326.932H65.3978V348.928H196.197H196.187ZM196.187 321.861V299.866H65.3978V321.861H196.197H196.187Z" fill="#0E4168"/>
<path d="M196.196 326.942V348.937H65.3975V326.942H196.196ZM192.697 345.125V330.745H185.313V345.125H192.697ZM181.053 345.125V330.745H173.669V345.125H181.053ZM169.41 345.125V330.745H162.026V345.125H169.41ZM157.766 345.125V330.745H150.383V345.125H157.766ZM146.123 345.125V330.745H138.739V345.125H146.123ZM134.479 345.125V330.745H127.096V345.125H134.479ZM122.836 345.125V330.745H115.452V345.125H122.836ZM111.193 345.125V330.745H103.809V345.125H111.193ZM99.5491 345.125V330.745H92.1652V345.125H99.5491ZM87.9057 345.125V330.745H80.5218V345.125H87.9057ZM76.2622 345.125V330.745H68.8783V345.125H76.2622Z" fill="#0E4168"/>
<path d="M196.196 299.875V321.871H65.3975V299.875H196.196ZM192.697 318.058V303.678H185.313V318.058H192.697ZM181.053 318.058V303.678H173.669V318.058H181.053ZM169.41 318.058V303.678H162.026V318.058H169.41ZM157.766 318.058V303.678H150.383V318.058H157.766ZM146.123 318.058V303.678H138.739V318.058H146.123ZM134.479 318.058V303.678H127.096V318.058H134.479ZM122.836 318.058V303.678H115.452V318.058H122.836ZM111.193 318.058V303.678H103.809V318.058H111.193ZM99.5491 318.058V303.678H92.1652V318.058H99.5491ZM87.9057 318.058V303.678H80.5218V318.058H87.9057ZM76.2622 318.058V303.678H68.8783V318.058H76.2622Z" fill="#0E4168"/>
<path d="M192.697 330.745H185.313V345.125H192.697V330.745Z" fill="#7BBDAE"/>
<path d="M192.697 303.678H185.313V318.058H192.697V303.678Z" fill="#016AB2"/>
<path d="M181.053 330.745H173.669V345.125H181.053V330.745Z" fill="#7BBDAE"/>
<path d="M181.053 303.678H173.669V318.058H181.053V303.678Z" fill="#7BBDAE"/>
<path d="M169.41 330.745H162.026V345.125H169.41V330.745Z" fill="#016AB2"/>
<path d="M169.41 303.678H162.026V318.058H169.41V303.678Z" fill="#7BBDAE"/>
<path d="M157.757 330.745H150.374V345.125H157.757V330.745Z" fill="#7BBDAE"/>
<path d="M157.757 303.678H150.374V318.058H157.757V303.678Z" fill="#016AB2"/>
<path d="M146.114 330.745H138.73V345.125H146.114V330.745Z" fill="#0A3351"/>
<path d="M146.114 303.678H138.73V318.058H146.114V303.678Z" fill="#7BBDAE"/>
<path d="M134.47 330.745H127.086V345.125H134.47V330.745Z" fill="#016AB2"/>
<path d="M134.47 303.678H127.086V318.058H134.47V303.678Z" fill="#7BBDAE"/>
<path d="M122.827 330.745H115.443V345.125H122.827V330.745Z" fill="#7BBDAE"/>
<path d="M122.827 303.678H115.443V318.058H122.827V303.678Z" fill="#016AB2"/>
<path d="M111.184 330.745H103.8V345.125H111.184V330.745Z" fill="#016AB2"/>
<path d="M111.184 303.678H103.8V318.058H111.184V303.678Z" fill="#7BBDAE"/>
<path d="M99.5401 330.745H92.1562V345.125H99.5401V330.745Z" fill="#016AB2"/>
<path d="M99.5401 303.678H92.1562V318.058H99.5401V303.678Z" fill="#016AB2"/>
<path d="M87.8868 330.745H80.5029V345.125H87.8868V330.745Z" fill="#016AB2"/>
<path d="M87.8868 303.678H80.5029V318.058H87.8868V303.678Z" fill="#0A3351"/>
<path d="M76.2438 330.745H68.8599V345.125H76.2438V330.745Z" fill="#7BBDAE"/>
<path d="M76.2438 303.678H68.8599V318.058H76.2438V303.678Z" fill="#016AB2"/>
<path d="M205.992 21.5758C210.129 25.4079 212.737 30.9722 212.737 37.1654C212.737 48.7294 203.646 58.1063 192.434 58.1063C183.971 58.1063 176.709 52.7647 173.669 45.1682C177.263 48.4874 182.01 50.5099 187.217 50.5099C198.429 50.5099 207.521 41.133 207.521 29.569C207.521 26.7337 206.977 24.0338 205.982 21.5662L205.992 21.5758Z" fill="#A1D9D7"/>
<path d="M182.274 17.8887L182.94 19.2918L184.451 19.5241L183.362 20.6176L183.616 22.1562L182.274 21.4304L180.923 22.1562L181.186 20.6176L180.097 19.5241L181.598 19.2918L182.274 17.8887Z" fill="#D7EDE6"/>
<path d="M143.975 45.168L144.651 46.5711L146.152 46.8034L145.063 47.8969L145.317 49.4355L143.975 48.7097L142.633 49.4355L142.887 47.8969L141.798 46.8034L143.3 46.5711L143.975 45.168Z" fill="#D7EDE6"/>
<path d="M129.949 83.1404L130.624 84.5435L132.125 84.7758L131.037 85.8693L131.3 87.4079L129.949 86.6821L128.607 87.4079L128.87 85.8693L127.781 84.7758L129.282 84.5435L129.949 83.1404Z" fill="#D7EDE6"/>
<path d="M30.3173 48.2258L30.9929 49.629L32.494 49.8516L31.4057 50.9451L31.6684 52.4934L30.3173 51.7676L28.9757 52.4934L29.229 50.9451L28.1406 49.8516L29.6512 49.629L30.3173 48.2258Z" fill="#D7EDE6"/>
<path d="M75.6435 20.0273L76.319 21.4305L77.8202 21.6531L76.7318 22.7466L76.9946 24.2949L75.6435 23.5691L74.3018 24.2949L74.5551 22.7466L73.4668 21.6531L74.9774 21.4305L75.6435 20.0273Z" fill="#D7EDE6"/>
<path d="M67.4902 71.499L68.1563 72.9119L69.6669 73.1344L68.5785 74.2279L68.8318 75.7762L67.4902 75.0408L66.1391 75.7762L66.4018 74.2279L65.3135 73.1344L66.8146 72.9119L67.4902 71.499Z" fill="#D7EDE6"/>
<path d="M206.508 81.0112L207.183 82.4144L208.684 82.637L207.596 83.7305L207.849 85.2788L206.508 84.5433L205.157 85.2788L205.419 83.7305L204.331 82.637L205.832 82.4144L206.508 81.0112Z" fill="#D7EDE6"/>
<path d="M239.834 34.4263L240.509 35.8391L242.011 36.0617L240.922 37.1552L241.176 38.7035L239.834 37.968L238.483 38.7035L238.746 37.1552L237.657 36.0617L239.158 35.8391L239.834 34.4263Z" fill="#D7EDE6"/>
</g>
</g>
<defs>
<clipPath id="clip0_61_6678">
<rect width="262.855" height="353.46" fill="white" transform="translate(0.969238 0.26709)"/>
</clipPath>
</defs>
</svg>
