<svg width="63" height="67" viewBox="0 0 63 67" fill="none" xmlns="http://www.w3.org/2000/svg">
<g clip-path="url(#clip0_140_3564)">
<path d="M3.90234 1.22827V66.0686H12.0478C12.0478 66.0686 12.1538 53.5272 9.77353 48.7434C7.39325 43.9595 11.4867 45.7244 14.9142 34.9439C18.3418 24.1635 19.6761 1.22827 19.6761 1.22827H3.90234Z" fill="#0C6362"/>
<path d="M15.3652 6.29646C15.3652 6.29646 15.3484 6.5266 15.3174 6.95973C15.2851 7.39157 15.2424 8.0264 15.1752 8.83189C15.1092 9.63868 15.0304 10.6174 14.9269 11.7397C14.8261 12.8619 14.7097 14.1277 14.5688 15.5073C14.4304 16.8868 14.2753 18.3815 14.0917 19.9601C13.9986 20.7501 13.9029 21.5608 13.806 22.3895C13.709 23.2183 13.5965 24.0639 13.4801 24.9237C13.2487 26.6433 12.9979 28.4197 12.6798 30.2182C12.5958 30.6681 12.5195 31.1194 12.429 31.5719C12.332 32.0257 12.2415 32.4744 12.1368 32.9372L11.97 33.6083L11.886 33.9444L11.7929 34.2819L11.6041 34.9581C11.5407 35.183 11.4683 35.4041 11.4024 35.6278C10.8516 37.4082 10.1858 39.1433 9.54705 40.8435C9.23029 41.6942 8.91998 42.5359 8.64976 43.3724C8.38213 44.209 8.15586 45.0442 8.06924 45.8691C8.0576 46.0682 8.04597 46.266 8.03433 46.4638C8.04079 46.5712 8.04596 46.6785 8.05243 46.7845C8.06536 46.8815 8.07958 46.9784 8.09251 47.0754C8.15069 47.4697 8.23473 47.8912 8.31231 48.2959C8.47392 49.113 8.63166 49.916 8.77259 50.7008C8.83982 51.0938 8.90576 51.4817 8.9717 51.8631C9.02988 52.2458 9.08677 52.6233 9.14366 52.9944C9.1915 53.3668 9.23934 53.7314 9.28588 54.0908C9.33243 54.4503 9.36604 54.8032 9.40612 55.1484C9.42552 55.3217 9.44362 55.4924 9.46172 55.6617C9.47724 55.8311 9.49146 55.9992 9.50697 56.1647C9.53542 56.4957 9.56386 56.8202 9.59231 57.1357C9.63109 57.7679 9.67376 58.3678 9.70221 58.9302C9.72418 59.494 9.74616 60.0215 9.76556 60.5089C9.77332 60.9963 9.77978 61.445 9.78495 61.8497C9.78754 62.0514 9.79012 62.244 9.79271 62.4237C9.79012 62.6035 9.78883 62.7728 9.78625 62.9306C9.78237 63.2447 9.77849 63.5124 9.7759 63.7283C9.77073 64.1614 9.76685 64.3929 9.76685 64.3929C9.76685 64.3929 9.75521 64.1614 9.73324 63.7296C9.72289 63.5137 9.70867 63.246 9.69315 62.9332C9.67893 62.619 9.65954 62.2595 9.6298 61.8561C9.60265 61.4528 9.57291 61.0067 9.54059 60.5205C9.49922 60.0357 9.45396 59.5108 9.40612 58.9509C9.35311 58.3911 9.28588 57.7963 9.21994 57.1706C9.18115 56.8577 9.14107 56.537 9.0997 56.2086C9.07901 56.0444 9.05833 55.8789 9.03764 55.7109C9.01307 55.5441 8.98851 55.3747 8.96394 55.2027C8.77259 53.8348 8.52047 52.3596 8.2037 50.8094C8.04467 50.0336 7.86883 49.241 7.68653 48.4252C7.59603 48.0141 7.50552 47.6094 7.43441 47.1633C7.4176 47.0495 7.3995 46.9332 7.38528 46.8207C7.37752 46.7147 7.36976 46.6074 7.36201 46.5C7.36201 46.5104 7.35942 46.4638 7.36071 46.4613V46.4406L7.3633 46.3979L7.36718 46.3126L7.37364 46.1432C7.37881 46.0294 7.3814 45.9156 7.38916 45.8032C7.47191 44.8994 7.69817 44.0228 7.96063 43.1578C8.2231 42.2929 8.52952 41.4369 8.84629 40.5823C9.47853 38.8744 10.1289 37.1522 10.6629 35.3977C10.7301 35.1792 10.8025 34.9607 10.8645 34.7409L11.052 34.0841L11.1451 33.7557L11.2304 33.4208L11.4011 32.751C11.502 32.3166 11.5951 31.8641 11.692 31.4232C11.7825 30.9784 11.8614 30.5298 11.9467 30.085C12.0346 29.6416 12.1032 29.1942 12.1795 28.752C12.2544 28.3086 12.3359 27.869 12.4031 27.4294C12.5428 26.5502 12.6837 25.6826 12.8091 24.8267C12.9345 23.9708 13.0586 23.1291 13.1789 22.3042C13.2965 21.4793 13.4116 20.6725 13.5241 19.8864C13.74 18.3142 13.9443 16.8261 14.1331 15.4543C14.8752 9.95932 15.3691 6.29517 15.3691 6.29517L15.3652 6.29646Z" fill="#194D47"/>
<path d="M8.55634 6.29663C8.55634 6.29663 8.56539 6.52419 8.5809 6.95215C8.59512 7.3801 8.62228 8.00588 8.64296 8.80491C8.66494 9.60265 8.69209 10.5723 8.71149 11.683C8.72054 12.2389 8.73088 12.8298 8.74123 13.4543C8.74769 14.0775 8.75415 14.7343 8.76062 15.4182C8.7645 16.1022 8.76838 16.8159 8.77226 17.5529C8.76967 18.2911 8.76708 19.0539 8.7632 19.8375C8.75545 20.6223 8.7464 21.4278 8.73735 22.2514C8.72312 23.075 8.70502 23.9166 8.68046 24.7726C8.64943 25.6285 8.63262 26.4986 8.58866 27.3791C8.56927 27.82 8.54987 28.2635 8.52919 28.7082C8.50074 29.1543 8.471 29.6016 8.44256 30.0516C8.42704 30.2766 8.41411 30.5015 8.39601 30.7278C8.37533 30.9541 8.35464 31.1803 8.33525 31.4066C8.29258 31.8604 8.26155 32.3142 8.19432 32.7706C8.13355 33.2244 8.08313 33.6912 8.00296 34.1359C7.93056 34.5859 7.85686 35.0358 7.77929 35.4871C7.46511 37.2894 7.11989 39.0827 6.76305 40.8449C6.41654 42.6059 6.01444 44.3371 5.68992 45.9986C5.66923 46.1033 5.65501 46.2002 5.6382 46.3011C5.62656 46.4032 5.61493 46.4446 5.61881 46.5674C5.62268 46.7782 5.62527 46.9863 5.62915 47.1958C5.63561 47.616 5.64337 48.031 5.64984 48.4435C5.65889 49.2671 5.66794 50.0726 5.67699 50.8561C5.69379 52.4244 5.69121 53.9074 5.68087 55.2766C5.67052 56.6458 5.64984 57.8999 5.61363 59.0132C5.58519 60.1251 5.53735 61.0948 5.49081 61.8925C5.47141 62.2907 5.44167 62.6476 5.41711 62.9566C5.40547 63.1117 5.39384 63.254 5.38349 63.3858C5.37056 63.5164 5.35763 63.6354 5.34729 63.7427C5.30333 64.1681 5.27877 64.3956 5.27877 64.3956C5.27877 64.3956 5.28782 64.1681 5.30462 63.7401C5.3085 63.6328 5.31367 63.5138 5.31885 63.3833C5.32014 63.2514 5.32272 63.1092 5.32531 62.954C5.3279 62.6437 5.33824 62.2881 5.33695 61.8899C5.34083 61.0922 5.33307 60.1238 5.31755 59.0145C5.31109 58.4598 5.29816 57.8689 5.28264 57.2457C5.26842 56.6225 5.25291 55.9683 5.2361 55.2844C5.19343 53.9177 5.14689 52.4373 5.09776 50.8716C5.06931 50.0894 5.04087 49.2852 5.01113 48.4629C4.99561 48.0517 4.98139 47.6367 4.96588 47.2165C4.95941 47.0044 4.95295 46.7924 4.94519 46.5791C4.93743 46.4899 4.95036 46.3205 4.96588 46.2106C4.98268 46.102 4.9982 45.9882 5.01759 45.8822C5.16757 45.0289 5.34212 44.1807 5.51149 43.3157C5.68216 42.4533 5.85541 41.5806 6.02866 40.7001C6.37646 38.9418 6.70874 37.1511 7.01517 35.3591C7.09533 34.913 7.17032 34.4631 7.24531 34.0131C7.32806 33.5619 7.37589 33.1223 7.43795 32.6775C7.50519 32.2353 7.53751 31.7854 7.58276 31.3381C7.60345 31.1144 7.62543 30.892 7.64612 30.6683C7.66551 30.4446 7.67844 30.221 7.69525 29.9986C7.72757 29.5525 7.7586 29.109 7.78963 28.6669C7.81549 28.2234 7.84264 27.7838 7.8685 27.3455C7.92539 26.4702 7.95642 25.6026 7.99908 24.7493C8.03399 23.896 8.06761 23.0568 8.09993 22.2358C8.12967 21.4148 8.15812 20.6106 8.18527 19.8284C8.23181 18.2627 8.27577 16.7823 8.31585 15.4156C8.45937 9.94527 8.55504 6.29922 8.55504 6.29922L8.55634 6.29663Z" fill="#194D47"/>
<path d="M9.13741 45.8601H3.90234V47.0729H9.13741V45.8601Z" fill="#F4D2BC"/>
<path d="M58.2049 1.22827V66.0686H50.0594C50.0594 66.0686 49.9534 53.5272 52.3337 48.7434C54.714 43.9595 50.6206 45.7244 47.193 34.9439C43.7655 24.1635 42.4312 1.22827 42.4312 1.22827H58.2049Z" fill="#0C6362"/>
<path d="M46.7402 6.29663C46.7402 6.29663 47.2354 9.95949 47.9763 15.4557C48.165 16.8288 48.3693 18.3157 48.5852 19.8879C48.6977 20.674 48.8128 21.4808 48.9305 22.3057C49.0507 23.1293 49.1748 23.9722 49.3002 24.8282C49.4244 25.6841 49.5653 26.5516 49.7062 27.4308C49.7734 27.8704 49.8549 28.31 49.9299 28.7535C50.0075 29.1957 50.076 29.643 50.1626 30.0865C50.2479 30.5313 50.3255 30.9786 50.4173 31.4247C50.5143 31.8656 50.6074 32.3181 50.7082 32.7525L50.8789 33.4222L50.9642 33.7571L51.0573 34.0855L51.2448 34.7423C51.3081 34.9608 51.3793 35.1793 51.4465 35.3991C51.9805 37.1536 52.6308 38.8745 53.2631 40.5838C53.5798 41.4384 53.8849 42.2943 54.1487 43.1593C54.4112 44.023 54.6374 44.9009 54.7202 45.8046C54.7279 45.9184 54.7305 46.0322 54.7357 46.1446L54.7422 46.314L54.746 46.3994V46.442L54.7486 46.4627C54.7486 46.4653 54.7473 46.5118 54.7473 46.5015C54.7396 46.6088 54.7318 46.7148 54.7241 46.8221C54.7098 46.9346 54.6917 47.051 54.6749 47.1648C54.6038 47.6108 54.5133 48.0155 54.4228 48.4267C54.2405 49.2425 54.0647 50.0351 53.9056 50.8108C53.5889 52.361 53.3367 53.8363 53.1454 55.2042C53.1208 55.3749 53.0963 55.5442 53.0717 55.7123C53.051 55.8804 53.0303 56.0459 53.0096 56.2101C52.9683 56.5385 52.9282 56.8591 52.8894 57.172C52.8235 57.7991 52.7562 58.3926 52.7032 58.9524C52.6554 59.5122 52.6101 60.0372 52.5687 60.522C52.5364 61.0081 52.5067 61.4542 52.4795 61.8576C52.4498 62.261 52.4317 62.6204 52.4162 62.9346C52.4007 63.2488 52.3864 63.5151 52.3761 63.7311C52.3541 64.1642 52.3425 64.3943 52.3425 64.3943C52.3425 64.3943 52.3399 64.1629 52.3334 63.7298C52.3308 63.5125 52.327 63.2462 52.3231 62.932C52.3218 62.7743 52.3192 62.6062 52.3166 62.4252C52.3192 62.2455 52.3218 62.0541 52.3244 61.8511C52.3309 61.4464 52.3373 60.9978 52.3438 60.5104C52.3632 60.0229 52.3839 59.4954 52.4071 58.9317C52.4356 58.368 52.4782 57.7694 52.517 57.1371C52.5442 56.8216 52.5726 56.4984 52.6024 56.1661C52.6166 56.0006 52.6321 55.8326 52.6476 55.6632C52.6657 55.4938 52.6851 55.3231 52.7032 55.1499C52.7433 54.8047 52.7769 54.4504 52.8235 54.0923C52.87 53.7328 52.9178 53.3682 52.9657 52.9959C53.0226 52.6248 53.0795 52.2473 53.1376 51.8646C53.2036 51.4832 53.2695 51.0953 53.3367 50.7022C53.4777 49.9174 53.6354 49.1132 53.797 48.2974C53.8746 47.8927 53.9586 47.4712 54.0168 47.0769C54.0298 46.9799 54.0427 46.8829 54.0569 46.7859C54.0634 46.6786 54.0685 46.5726 54.075 46.4653C54.0634 46.2675 54.0517 46.0697 54.0401 45.8706C53.9535 45.047 53.7272 44.2104 53.4596 43.3739C53.1881 42.5374 52.8778 41.6957 52.5623 40.8449C51.9236 39.1447 51.2577 37.4096 50.7069 35.6293C50.6397 35.4056 50.5686 35.1858 50.5052 34.9595L50.3165 34.2833L50.2234 33.9459L50.1393 33.6097L49.9726 32.9387C49.8678 32.4758 49.7773 32.0285 49.6804 31.5734C49.5898 31.1208 49.5136 30.6696 49.4295 30.2197C49.1115 28.4199 48.8606 26.6434 48.6292 24.9251C48.5128 24.0653 48.4004 23.2198 48.3034 22.391C48.2051 21.5622 48.1107 20.7516 48.0176 19.9616C47.8341 18.3829 47.6789 16.8883 47.5406 15.5087C47.3996 14.1292 47.282 12.8634 47.1824 11.7411C47.079 10.6189 47.0001 9.64014 46.9342 8.83335C46.8669 8.02786 46.8243 7.39303 46.792 6.9612C46.7609 6.52936 46.7441 6.29792 46.7441 6.29792L46.7402 6.29663Z" fill="#194D47"/>
<path d="M53.5502 6.29653C53.5502 6.29653 53.6459 9.94259 53.7894 15.413C53.8295 16.7796 53.8735 18.26 53.92 19.8257C53.9471 20.6079 53.9756 21.4121 54.0053 22.2332C54.0389 23.0542 54.0726 23.8933 54.1062 24.7466C54.1488 25.5986 54.1799 26.4662 54.2368 27.3428C54.2626 27.7811 54.2885 28.222 54.3156 28.6642C54.3467 29.1064 54.379 29.5498 54.41 29.9959C54.4268 30.2183 54.4398 30.4419 54.4591 30.6656C54.4798 30.888 54.5018 31.1117 54.5225 31.3354C54.5678 31.7814 54.6001 32.2327 54.6673 32.6748C54.7294 33.1209 54.7785 33.5592 54.86 34.0104C54.9349 34.4604 55.0099 34.909 55.0901 35.3564C55.3952 37.1484 55.7288 38.9391 56.0766 40.6974C56.2511 41.5766 56.4231 42.4507 56.5938 43.313C56.7631 44.178 56.9377 45.0262 57.0877 45.8795C57.1071 45.9855 57.1213 46.0993 57.1394 46.2079C57.1549 46.3165 57.1678 46.4872 57.1601 46.5764C57.1536 46.7897 57.1471 47.0018 57.1394 47.2138C57.1239 47.6327 57.1084 48.049 57.0941 48.4602C57.0644 49.2825 57.0347 50.0867 57.0075 50.8689C56.9584 52.4346 56.9118 53.9151 56.8692 55.2817C56.8524 55.9643 56.8381 56.6199 56.8226 57.243C56.8071 57.8662 56.7942 58.4571 56.7877 59.0118C56.7709 60.1224 56.7631 61.0908 56.7683 61.8872C56.767 62.2868 56.7774 62.6423 56.78 62.9513C56.7825 63.1065 56.7838 63.25 56.7864 63.3806C56.7916 63.5112 56.7955 63.6314 56.8006 63.7374C56.8174 64.1641 56.8265 64.3929 56.8265 64.3929C56.8265 64.3929 56.8032 64.1667 56.758 63.74C56.7476 63.634 56.7347 63.515 56.7218 63.3832C56.7114 63.2526 56.6998 63.1091 56.6882 62.9539C56.6636 62.6449 56.6339 62.2893 56.6145 61.8898C56.5679 61.0921 56.5201 60.1224 56.4916 59.0105C56.4554 57.8986 56.4347 56.6431 56.4244 55.2739C56.4141 53.9047 56.4115 52.4217 56.4283 50.8534C56.4373 50.0699 56.4464 49.2644 56.4554 48.4408C56.4619 48.0296 56.4696 47.6133 56.4761 47.1931C56.48 46.985 56.4826 46.7755 56.4865 46.5648C56.4903 46.4419 56.4787 46.4006 56.4671 46.2984C56.449 46.1976 56.436 46.0993 56.4153 45.9959C56.0908 44.3345 55.6887 42.6032 55.3422 40.8423C54.9854 39.08 54.6414 37.2867 54.326 35.4844C54.2484 35.0331 54.1747 34.5832 54.1023 34.1333C54.0234 33.6872 53.973 33.2217 53.9109 32.7679C53.8437 32.3102 53.814 31.8564 53.77 31.4039C53.7493 31.1776 53.7286 30.9514 53.7093 30.7251C53.6911 30.4988 53.6782 30.2739 53.6627 30.0489C53.633 29.599 53.6045 29.1516 53.5761 28.7055C53.5567 28.2595 53.5373 27.8173 53.5166 27.3764C53.4726 26.4946 53.4545 25.6258 53.4248 24.7699C53.4002 23.914 53.3821 23.0723 53.3679 22.2487C53.3589 21.4251 53.3511 20.6196 53.3421 19.8348C53.3395 19.05 53.3369 18.2871 53.333 17.5502C53.3369 16.8119 53.3408 16.0995 53.3446 15.4155C53.3511 14.7316 53.3576 14.0761 53.364 13.4516C53.3744 12.8284 53.3847 12.2362 53.3938 11.6803C53.4132 10.5684 53.439 9.59996 53.4623 8.80222C53.4817 8.00449 53.5088 7.37742 53.5244 6.94946C53.5412 6.5215 53.5489 6.29395 53.5489 6.29395L53.5502 6.29653Z" fill="#194D47"/>
<path d="M58.2048 45.8601H52.9697V47.0729H58.2048V45.8601Z" fill="#F4D2BC"/>
<path d="M59.0686 0.775635H2.98145V1.68068H59.0686V0.775635Z" fill="#0B161B"/>
<path d="M3.10303 0H0.646464C0.289432 0 0 0.289432 0 0.646464V1.68081C0 2.03784 0.289432 2.32727 0.646464 2.32727H3.10303C3.46006 2.32727 3.74949 2.03784 3.74949 1.68081V0.646464C3.74949 0.289432 3.46006 0 3.10303 0Z" fill="#0B161B"/>
<path d="M61.4141 0H58.9575C58.6005 0 58.311 0.289432 58.311 0.646464V1.68081C58.311 2.03784 58.6005 2.32727 58.9575 2.32727H61.4141C61.7711 2.32727 62.0605 2.03784 62.0605 1.68081V0.646464C62.0605 0.289432 61.7711 0 61.4141 0Z" fill="#0B161B"/>
</g>
<defs>
<clipPath id="clip0_140_3564">
<rect width="62.0605" height="66.0686" fill="white"/>
</clipPath>
</defs>
</svg>
