<svg width="30" height="27" viewBox="0 0 30 27" fill="none" xmlns="http://www.w3.org/2000/svg">
<path fill-rule="evenodd" clip-rule="evenodd" d="M20.3286 9.82878C20.3286 11.0665 19.7854 12.2534 18.8187 13.1286C17.8519 14.0038 16.5407 14.4954 15.1736 14.4954C13.8064 14.4954 12.4952 14.0038 11.5284 13.1286C10.5617 12.2534 10.0186 11.0665 10.0186 9.82878C10.0186 8.5911 10.5617 7.40411 11.5284 6.52894C12.4952 5.65377 13.8064 5.16211 15.1736 5.16211C16.5407 5.16211 17.8519 5.65377 18.8187 6.52894C19.7854 7.40411 20.3286 8.5911 20.3286 9.82878ZM17.7511 9.82878C17.7511 10.4476 17.4795 11.0411 16.9961 11.4787C16.5128 11.9163 15.8572 12.1621 15.1736 12.1621C14.49 12.1621 13.8344 11.9163 13.351 11.4787C12.8676 11.0411 12.5961 10.4476 12.5961 9.82878C12.5961 9.20994 12.8676 8.61644 13.351 8.17886C13.8344 7.74128 14.49 7.49544 15.1736 7.49544C15.8572 7.49544 16.5128 7.74128 16.9961 8.17886C17.4795 8.61644 17.7511 9.20994 17.7511 9.82878Z" fill="#FCFCFC"/>
<path fill-rule="evenodd" clip-rule="evenodd" d="M15.1736 0.495117C7.34441 0.495117 0.997314 6.24095 0.997314 13.3285C0.997314 20.4159 7.34441 26.1618 15.1736 26.1618C23.0027 26.1618 29.3498 20.4159 29.3498 13.3285C29.3498 6.24095 23.0027 0.495117 15.1736 0.495117ZM3.57482 13.3285C3.57482 15.7668 4.4937 18.0114 6.03375 19.7941C7.11531 18.5083 8.5106 17.4663 10.1106 16.7495C11.7107 16.0326 13.4721 15.6604 15.2573 15.6618C17.0195 15.6603 18.7588 16.0229 20.3427 16.722C21.9266 17.4212 23.3133 18.4384 24.3972 19.6961C25.5138 18.3703 26.2656 16.8229 26.5905 15.1818C26.9153 13.5407 26.8038 11.8532 26.2652 10.2589C25.7266 8.66462 24.7763 7.20934 23.4931 6.01349C22.2098 4.81765 20.6305 3.91562 18.8857 3.38204C17.1409 2.84847 15.2808 2.69868 13.4594 2.94509C11.6379 3.19149 9.90747 3.82699 8.4112 4.79901C6.91493 5.77104 5.69586 7.05163 4.85484 8.53485C4.01383 10.0181 3.57505 11.6612 3.57482 13.3285Z" fill="#FCFCFC"/>
<ellipse cx="15.1736" cy="9.82845" rx="2.5775" ry="2.33333" fill="#FCFCFC"/>
</svg>
