<svg width="27" height="26" viewBox="0 0 27 26" fill="none" xmlns="http://www.w3.org/2000/svg">
<path d="M9.62918 25.5L9.11346 21.5C8.83412 21.3958 8.5711 21.2708 8.32442 21.125C8.07688 20.9792 7.83492 20.8229 7.59855 20.6562L3.76294 22.2188L0.217407 16.2812L3.53731 13.8438C3.51582 13.6979 3.50508 13.5571 3.50508 13.4212V12.5775C3.50508 12.4425 3.51582 12.3021 3.53731 12.1562L0.217407 9.71875L3.76294 3.78125L7.59855 5.34375C7.83492 5.17708 8.08204 5.02083 8.33989 4.875C8.59775 4.72917 8.85561 4.60417 9.11346 4.5L9.62918 0.5H16.7202L17.2359 4.5C17.5153 4.60417 17.7787 4.72917 18.0263 4.875C18.273 5.02083 18.5145 5.17708 18.7509 5.34375L22.5865 3.78125L26.132 9.71875L22.8121 12.1562C22.8336 12.3021 22.8443 12.4425 22.8443 12.5775V13.4212C22.8443 13.5571 22.8228 13.6979 22.7799 13.8438L26.0998 16.2812L22.5542 22.2188L18.7509 20.6562C18.5145 20.8229 18.2674 20.9792 18.0095 21.125C17.7517 21.2708 17.4938 21.3958 17.2359 21.5L16.7202 25.5H9.62918ZM13.2392 17.375C14.4855 17.375 15.5491 16.9479 16.4301 16.0938C17.3112 15.2396 17.7517 14.2083 17.7517 13C17.7517 11.7917 17.3112 10.7604 16.4301 9.90625C15.5491 9.05208 14.4855 8.625 13.2392 8.625C11.9714 8.625 10.9021 9.05208 10.0314 9.90625C9.1616 10.7604 8.72668 11.7917 8.72668 13C8.72668 14.2083 9.1616 15.2396 10.0314 16.0938C10.9021 16.9479 11.9714 17.375 13.2392 17.375Z" fill="#FCFCFC"/>
</svg>
