<svg width="24" height="22" viewBox="0 0 24 22" fill="none" xmlns="http://www.w3.org/2000/svg">
<path d="M20.9556 0.358398H7.00742C5.72884 0.358398 4.68272 1.30541 4.68272 2.46288V15.0897C4.68272 16.2472 5.72884 17.1942 7.00742 17.1942H20.9556C22.2342 17.1942 23.2803 16.2472 23.2803 15.0897V2.46288C23.2803 1.30541 22.2342 0.358398 20.9556 0.358398ZM18.6309 5.61959H15.1439V11.4069C15.1439 12.1046 14.8377 12.7737 14.2928 13.267C13.7478 13.7603 13.0087 14.0375 12.238 14.0375C11.4673 14.0375 10.7282 13.7603 10.1832 13.267C9.63827 12.7737 9.33212 12.1046 9.33212 11.4069C9.33212 10.7092 9.63827 10.0401 10.1832 9.54679C10.7282 9.05346 11.4673 8.77631 12.238 8.77631C12.9005 8.77631 13.4933 8.97623 13.9815 9.31295V3.51511H18.6309V5.61959ZM2.35802 4.56735H0.0333252V19.2987C0.0333252 20.4562 1.07944 21.4032 2.35802 21.4032H18.6309V19.2987H2.35802V4.56735Z" fill="#FCFCFC"/>
</svg>
