<svg width="74" height="60" viewBox="0 0 74 60" fill="none" xmlns="http://www.w3.org/2000/svg">
<path d="M67.9384 0C71.7734 6.00487 73.9998 13.1981 73.9998 20.9252C73.9998 41.6896 57.9252 58.579 37.9154 59.0727L37.8765 56.6214C47.3442 56.3688 55.8435 52.1264 61.8492 45.4498C67.4765 39.2039 70.9107 30.8338 70.9107 21.6428C70.9107 14.5586 69.6695 7.96822 66.1518 2.4628V0H67.9329H67.9384Z" fill="#8EA59E"/>
<path d="M66.1519 2.46265C69.6696 7.96807 70.9108 14.5585 70.9108 21.6426C70.9108 30.8336 67.471 39.2037 61.8493 45.4497C34.0472 39.1865 11.1653 44.3015 11.1653 44.3015C6.12253 38.1933 3.0835 30.2825 3.0835 21.6426C3.0835 14.5585 4.33028 7.96807 7.84799 2.46265H66.1574H66.1519Z" fill="#5D8980"/>
<path d="M66.1519 0V2.4628H7.84806C4.33035 7.96822 3.078 14.5586 3.078 21.6428C3.078 30.2827 6.11704 38.1935 11.1598 44.3017C17.3715 51.8451 26.6445 56.6272 36.9972 56.6272C37.2922 56.6272 37.5761 56.6272 37.8711 56.6214L37.91 59.0727C37.6095 59.09 37.2978 59.09 36.9972 59.09C16.5644 59.09 0 41.9996 0 20.9252C0 13.1981 2.2264 6.00487 6.06138 0H66.1519Z" fill="#8EA59E"/>
<path d="M61.8491 45.4498C55.8433 52.1206 47.3441 56.363 37.8763 56.6213C37.5813 56.6271 37.2974 56.6271 37.0024 56.6271C26.6497 56.6271 17.3823 51.845 11.165 44.3016C11.165 44.3016 34.0469 39.1866 61.8491 45.4498Z" fill="#B19561"/>
<path d="M43.4927 12.5836C43.4927 12.5836 44.027 12.8534 44.9009 13.4333C45.7747 14.0073 46.9993 14.8742 48.3407 16.1142C49.0141 16.7285 49.721 17.4346 50.389 18.2727C51.0624 19.1109 51.7415 20.0581 52.2257 21.2637C52.4706 21.8607 52.6488 22.5382 52.6877 23.2902C52.7044 23.6633 52.6877 24.0595 52.6042 24.4498C52.582 24.5532 52.5653 24.6393 52.5319 24.7484L52.4706 24.9608C52.4372 25.0928 52.3704 25.2823 52.3204 25.4373C51.9029 26.6773 51.3463 27.768 50.812 28.853C50.2665 29.9266 49.7155 30.9714 49.2368 31.9932C48.7637 33.0094 48.3518 34.0255 48.2015 34.921C48.1292 35.3688 48.1292 35.7707 48.2182 36.0864C48.2572 36.2472 48.324 36.3907 48.413 36.5285C48.413 36.5399 48.4464 36.5801 48.4297 36.5686L48.4909 36.6433L48.6134 36.7925L48.8249 37.0394C49.4539 37.7111 50.1663 38.3138 50.8509 38.8707C51.5411 39.4161 52.1923 39.9442 52.7322 40.4896C53.2777 41.0235 53.6896 41.6205 53.851 42.1889C54.0291 42.763 53.9011 43.228 53.8065 43.492C53.7619 43.6298 53.7063 43.7274 53.6729 43.7906C53.6395 43.8537 53.6228 43.8882 53.6228 43.8882C53.6228 43.8882 53.6284 43.848 53.6395 43.7791C53.6506 43.7045 53.6729 43.6011 53.6785 43.4633C53.6952 43.1878 53.6618 42.7802 53.4224 42.3726C53.1887 41.965 52.7434 41.5861 52.1756 41.2072C51.6023 40.8283 50.8899 40.4724 50.1162 40.0303C49.3425 39.5883 48.4687 39.1003 47.6226 38.3598L47.2998 38.0613L47.1607 37.9235L47.0883 37.8546L46.9881 37.734C46.7488 37.4642 46.5428 37.137 46.4037 36.7868C46.1031 36.0864 46.0697 35.3401 46.1198 34.6742C46.2311 33.3251 46.6709 32.1425 47.1384 31.0001C47.6115 29.8634 48.1681 28.7784 48.6969 27.7163C49.2312 26.66 49.76 25.6095 50.1385 24.6221C50.183 24.5015 50.222 24.4154 50.2665 24.2604L50.3333 24.048C50.3444 24.0193 50.3556 23.9619 50.3667 23.9217C50.4112 23.7437 50.439 23.5485 50.4446 23.3419C50.4502 22.9285 50.3667 22.475 50.2275 22.0157C49.9381 21.0972 49.4594 20.1902 48.9474 19.3635C48.4186 18.5426 47.8676 17.7733 47.3388 17.0787C46.259 15.7009 45.2849 14.5814 44.5947 13.8007L43.4927 12.5779V12.5836Z" fill="#094848"/>
<path d="M55.4317 7.93372C55.4317 7.93372 55.7155 8.46761 56.1218 9.44355C56.5226 10.4195 57.0625 11.8375 57.5245 13.6114C57.7582 14.4954 57.9865 15.4656 58.1479 16.5105C58.3148 17.5553 58.4596 18.6747 58.4818 19.8573C58.5097 21.0399 58.4429 22.2857 58.1534 23.5659C58.0198 24.2031 57.8028 24.8518 57.53 25.4776C57.2295 26.1033 56.8677 26.7233 56.389 27.2687C56.0606 27.682 55.5652 28.1758 55.3092 28.5719C54.9975 28.9737 54.7081 29.4272 54.4465 29.875C53.94 30.7821 53.606 31.7236 53.4947 32.6708C53.3834 33.618 53.4613 34.571 53.6895 35.4838C53.9288 36.408 54.2739 37.229 54.6023 38.1245C54.9418 39.066 55.0587 39.9157 55.1255 40.6792C55.1979 41.437 55.1756 42.0914 55.1422 42.6311C55.0699 43.7046 54.9196 44.2959 54.9196 44.2959C54.9196 44.2959 54.8639 43.6874 54.6691 42.6655C54.5745 42.1546 54.4242 41.5403 54.2294 40.8629C54.0235 40.1912 53.7396 39.4334 53.3611 38.7331L53.1941 38.4345L53.0271 38.1532C52.9047 37.9466 52.7822 37.7342 52.6598 37.516C52.4149 37.074 52.2034 36.586 51.9919 36.0693C51.5967 35.0303 51.3128 33.8017 51.374 32.5043C51.4241 31.2069 51.8026 29.8922 52.4038 28.7326C52.7099 28.1585 53.0327 27.5959 53.4446 27.062L53.7396 26.6544L54.0235 26.31L54.6079 25.6154C55.2146 24.9322 55.6376 23.9965 55.9048 22.9803C56.1775 21.97 56.3111 20.8849 56.3667 19.8229C56.4892 17.6873 56.3333 15.6264 56.1775 13.864C55.9994 12.0958 55.8046 10.6147 55.6599 9.56984C55.5096 8.52502 55.4205 7.92798 55.4205 7.92798L55.4317 7.93372Z" fill="#094848"/>
<path d="M17.683 22.4406C17.683 22.4406 13.6588 19.9491 11.1541 22.4406C8.64936 24.9321 9.62897 26.5912 7.84229 27.8829C12.2227 27.1423 16.0688 25.4602 17.683 22.4406Z" fill="#B08C2F"/>
<path d="M17.6832 22.4407C17.6832 22.4407 19.2918 25.1159 18.3066 27.5155C17.3214 29.9152 17.7834 32.7741 18.6239 33.6065C12.7573 31.8556 15.0839 24.0137 17.6776 22.4407H17.6832Z" fill="#B08C2F"/>
<path d="M25.8263 23.3822C21.4181 24.1974 17.1489 22.9918 17.1489 22.9918C17.1489 22.9918 18.3067 19.2086 22.0581 16.8836C23.3049 16.1086 24.8411 15.4886 26.7225 15.2303C28.8487 14.9317 31.4202 15.0867 34.4982 15.9823C33.6187 18.6575 32.127 20.4372 30.3737 21.6083C28.96 22.5498 27.3848 23.0894 25.8208 23.3879L25.8263 23.3822Z" fill="#A85225"/>
<path d="M30.3788 21.6083C30.3788 21.6083 31.0133 23.6692 29.132 26.6831C28.1914 28.1987 26.9836 29.3641 26.1821 29.5478C26.1821 29.5478 24.6625 25.5809 25.8203 24.8403C26.939 24.14 25.9093 23.4396 25.8203 23.3822C27.3843 23.0894 28.9595 22.544 30.3733 21.6025L30.3788 21.6083Z" fill="#B08C2F"/>
<path d="M26.7166 15.0868V15.2303C24.8408 15.4886 23.3046 16.1086 22.0578 16.8836C22.0578 16.8836 18.9353 15.4255 19.7368 14.2256C20.5439 13.0316 14.104 10.6262 19.7368 10.8501C25.3696 11.0739 26.711 15.0868 26.711 15.0868H26.7166Z" fill="#B08C2F"/>
<path d="M31.1081 16.8778C31.1081 17.2338 30.8298 17.5208 30.4847 17.5208C30.1396 17.5208 29.8613 17.2338 29.8613 16.8778C29.8613 16.5219 30.1396 16.2349 30.4847 16.2349C30.8298 16.2349 31.1081 16.5219 31.1081 16.8778Z" fill="#501912"/>
</svg>
