<?xml version="1.0" encoding="UTF-8"?>
<svg id="_ÎÓÈ_1" data-name="—ÎÓÈ_1" xmlns="http://www.w3.org/2000/svg" xmlns:xlink="http://www.w3.org/1999/xlink" viewBox="0 0 2096.96 1378.16">
  <defs>
    <style>
      .cls-1 {
        fill: url(#_ÂÁ_Ï_ÌÌ_È_ËÂÌÚ_168);
      }

      .cls-2 {
        fill: url(#_ÂÁ_Ï_ÌÌ_È_ËÂÌÚ_139);
      }

      .cls-3 {
        fill: url(#_ÂÁ_Ï_ÌÌ_È_ËÂÌÚ_170);
      }
    </style>
    <linearGradient id="_ÂÁ_Ï_ÌÌ_È_ËÂÌÚ_139" data-name="¡ÂÁ˚ÏˇÌÌ˚È „‡‰ËÂÌÚ 139" x1="1756.84" y1="1422.6" x2="1623.89" y2="12.34" gradientUnits="userSpaceOnUse">
      <stop offset="0" stop-color="#02dae9"/>
      <stop offset="1" stop-color="#8722d6"/>
    </linearGradient>
    <linearGradient id="_ÂÁ_Ï_ÌÌ_È_ËÂÌÚ_168" data-name="¡ÂÁ˚ÏˇÌÌ˚È „‡‰ËÂÌÚ 168" x1="-121.95" y1="813.01" x2="774.05" y2="953.01" gradientUnits="userSpaceOnUse">
      <stop offset="0" stop-color="#07c9c4"/>
      <stop offset="1" stop-color="#4dfdde"/>
    </linearGradient>
    <linearGradient id="_ÂÁ_Ï_ÌÌ_È_ËÂÌÚ_170" data-name="¡ÂÁ˚ÏˇÌÌ˚È „‡‰ËÂÌÚ 170" x1="1392.94" y1="362.35" x2="891.61" y2="1333.02" gradientTransform="translate(4.97 -10.21) rotate(.1)" gradientUnits="userSpaceOnUse">
      <stop offset="0" stop-color="#438afe"/>
      <stop offset="1" stop-color="#00fff4"/>
    </linearGradient>
  </defs>
  <path class="cls-2" d="m2028.95,800.74c-.04,131.72-51.36,251.4-135.07,340.26-101.07,107.28-281.52,63.37-328.79-76.24l-242.57-716.36c63.67-29.42,134.29-46.34,209.37-46.18,274.84.16,497.53,223.57,497.06,498.51Z"/>
  <path class="cls-1" d="m776.1,1162.16l-7.15-21.12c76.09-100.45-14.45-504.35-74.49-550.11-50.34-38.38-109.46-64.26-172.11-75.09l.08,1.06c-21.67-3.8-43.74-6.47-66.42-6.51-216.98-.08-392.98,175.6-393.37,392.23-.38,217.29,175.3,393.28,392.58,393.67l366.41.36,140.81.25c-84.15-.79-159.28-54.71-186.33-134.74Z"/>
  <path class="cls-3" d="m1890.35,1144.52c-66.66,69.32-153.15,119.4-250.47,140.98-35.23,8.25-71.71,12.35-109.46,12.29l-662.72-.89c-84.81-.15-160.56-54.37-187.6-134.75l-179.34-528.86c-5.41-15.37-9.54-31.06-13.04-47.07-49.19-221.84,82.75-450.09,310.36-512.39,223.8-61.67,455.56,71.86,530.04,291.52l14.98,43.54,222.92,658.23c47.75,136.4,223.36,179.59,324.33,77.38Z"/>
</svg>